<?xml version="1.0" encoding="utf-8"?>
<!-- Generator: Adobe Illustrator 26.5.2, SVG Export Plug-In . SVG Version: 6.00 Build 0)  -->
<svg version="1.1" id="レイヤー_1" xmlns="http://www.w3.org/2000/svg" xmlns:xlink="http://www.w3.org/1999/xlink" x="0px"
	 y="0px" viewBox="0 0 387.4 58.7" style="enable-background:new 0 0 387.4 58.7;" xml:space="preserve">
<style type="text/css">
	.st0{fill:#231815;}
	.st1{fill:#EF8200;}
</style>
<g>
	<rect x="95.9" y="19.5" class="st0" width="9.3" height="34.8"/>
	<path class="st0" d="M127,28.3c-4.3,0-6.7,2.5-7.6,3.8H119v-3.2h-8.1c0.1,2.3,0,5.3,0,8.7v16.8h9.4V39.9c0-0.7,0.1-1.4,0.3-1.9
		c0.4-1,1.3-2.2,3.1-2.2c2.2,0,3.2,1.7,3.2,4.7v13.9h9.3v-15C136.2,32.4,132.9,28.3,127,28.3"/>
	<path class="st0" d="M187.6,28.3c-4.3,0-6.7,2.5-7.6,3.8h-0.4v-3.2h-8.1c0.1,2.3,0,5.3,0,8.7v16.8h9.4V39.9c0-0.7,0.1-1.4,0.3-1.9
		c0.4-1,1.3-2.2,3.1-2.2c2.2,0,3.2,1.7,3.2,4.7v13.9h9.3v-15C196.8,32.4,193.6,28.3,187.6,28.3"/>
	<path class="st0" d="M205.7,17.8c-2.9,0-4.8,1.9-4.7,4.4c0,2.5,1.8,4.4,4.7,4.4c3,0,4.8-1.9,4.8-4.4
		C210.4,19.7,208.6,17.8,205.7,17.8"/>
	<rect x="201" y="29.2" class="st0" width="9.3" height="25.4"/>
	<path class="st0" d="M162.5,17.5c-2.9,0-4.8,1.9-4.7,4.4c0,2.5,1.8,4.4,4.7,4.4c3,0,4.8-1.9,4.8-4.4
		C167.2,19.4,165.4,17.5,162.5,17.5"/>
	<rect x="157.8" y="28.9" class="st0" width="9.3" height="25.4"/>
	<path class="st0" d="M233,48c-5.5,0-6.9-5.6-6.9-11.2c0-6.2,1.7-11,6.8-11c3.9,0,5.3,2.3,5.8,4.9H249c-0.7-6.2-5.5-12.2-15.9-12.2
		c-12.2,0-17.8,8.6-17.8,18.7c0,10.3,5.6,18.2,17.3,18.2c9.8,0,15.2-4.9,16.5-12.4h-10.4C238.3,45,237.1,48,233,48"/>
	<polygon class="st0" points="262.9,19.1 252.4,19.1 252.4,54.7 277.5,54.7 279.1,47 262.9,47 	"/>
	<path class="st0" d="M297.4,18.5c-12,0-18.3,8.2-18.3,18.5c0,10.1,5.8,18.4,17.8,18.4c12.2,0,18.3-8.4,18.3-18.5
		C315.1,26.2,308.6,18.5,297.4,18.5 M297.2,47.9c-5.2,0-7.3-4.5-7.3-11.1c0-6.6,2.1-10.8,7.2-10.8c5.5,0,7.3,4.5,7.3,11
		C304.4,43,302.6,47.9,297.2,47.9"/>
	<path class="st0" d="M339.9,41c0,4.8-2,6.8-5.4,6.8c-3.2,0-5.7-1.7-5.7-6.8V19.1h-10.4V40c0,11.6,6.5,15.4,15.9,15.4
		c9.1,0,16.1-3.6,16.1-15.4V19.1h-10.5V41z"/>
	<path class="st0" d="M369.5,19.1h-15.3v35.6h15.1c11.7,0,18.1-7.9,18.1-18.2C387.4,26.3,380.8,19.1,369.5,19.1 M368.6,47.2h-4V26.7
		h4.1c5.7,0,7.9,4,7.9,9.9C376.6,43.2,374.3,47.2,368.6,47.2"/>
	<path class="st0" d="M142.2,27.2v1.7h-2.7v7h2.7v18.5h9V36h3.6v-7h-3.6v-1.7c0-0.5,0.4-0.9,0.9-0.9h2.7v-8.8H152
		C146.6,17.5,142.2,21.9,142.2,27.2"/>
	<path class="st1" d="M20,17.3c-3.2,0-6.4,0.8-9.3,2.4C2.4,24.3-1.7,33.9,0.6,43C3,52.2,11.5,58.7,21.4,58.7h9.5l-7.5-11.6
		c-1.1-1.5-1.6-1.8-2.7-1.9h0c-4,0-7.3-3.3-7.3-7.4c0-2.8,1.6-5.4,4.1-6.6c0.7-0.3,1.5-0.5,2.4-0.5c2.3,0,3.6,0.5,6.6,5.7
		c0.7,1.1,1.3,2.3,1.9,3.4l0.1,0.2c4.1,7.8,9.8,18.4,25.8,18.4c8.1,0,15.6-3.2,21.2-9.1c5.6-5.9,8.4-13.6,8-21.7
		C82.8,13.2,71.4,1.4,57,0.1C46.1-0.8,36.5,3.7,30.7,12.5l9.7,5.6c1,0.6,2.4,0.4,3.2-0.4c2.8-3,6-4.3,10.8-4.3
		c4.5,0,8.8,1.9,11.8,5.3c3,3.3,4.4,7.8,4,12.3c-0.5,4.3-2.8,8.4-6.4,11c-3.7,2.7-8.4,3.7-12.8,2.8c-4.9-1-7-4.5-10.4-11
		c-0.7-1.4-1.5-2.8-2.2-4.1C34.4,23.3,29.6,17.3,20,17.3"/>
</g>
</svg>
