<svg xmlns="http://www.w3.org/2000/svg" xmlns:xlink="http://www.w3.org/1999/xlink" width="91.135" height="44.001" viewBox="0 0 91.135 44.001">
  <defs>
    <clipPath id="clip-path">
      <rect id="Rectangle_19946" data-name="Rectangle 19946" width="91.135" height="44.001" fill="none"/>
    </clipPath>
  </defs>
  <g id="Group_68934" data-name="Group 68934" transform="translate(0 0)">
    <g id="Group_68933" data-name="Group 68933" transform="translate(0 0)" clip-path="url(#clip-path)">
      <path id="Path_47998" data-name="Path 47998" d="M12.022,13.442v.082A1.5,1.5,0,0,1,10.465,15.1a1.589,1.589,0,1,1,0-3.178,1.5,1.5,0,0,1,1.557,1.517m-.2,12.363H9.174V16.31h2.645Z" transform="translate(4.896 6.585)" fill="#054963"/>
      <path id="Path_47999" data-name="Path 47999" d="M14.733,19.909v5.823H12.087V12.058h8.367v2.358h-5.72v3.157H20.25v2.336Z" transform="translate(6.675 6.659)" fill="#054963"/>
      <path id="Path_48000" data-name="Path 48000" d="M21.119,22.852l-.88,2.952h-2.89l4.59-13.879h2.954L29.565,25.8H26.677l-.9-2.952ZM21.8,20.6h3.322L23.4,15.185Z" transform="translate(9.581 6.585)" fill="#054963"/>
      <path id="Path_48001" data-name="Path 48001" d="M35.762,15.77H32.808v-.062c0-.942-.636-1.455-1.846-1.455-1.188,0-1.988.573-1.988,1.434,0,.8.616,1.292,2.255,1.846l.964.328c2.625.882,3.712,2.01,3.712,3.9,0,2.521-2.111,4.325-5.084,4.325-2.237,0-3.567-.574-4.45-1.906a4,4,0,0,1-.759-2.685h2.935l-.023.165c0,1.25.841,1.988,2.277,1.988,1.332,0,2.151-.574,2.151-1.5,0-.8-.432-1.169-2.131-1.784l-1.088-.408c-2.684-1.006-3.626-2.03-3.626-3.979,0-2.5,1.987-4.182,4.961-4.182,2.951,0,4.651,1.456,4.694,3.977" transform="translate(14.145 6.512)" fill="#054963"/>
      <path id="Path_48002" data-name="Path 48002" d="M39.134,14.518V25.731H36.388V14.518H32.82v-2.46h9.8v2.46Z" transform="translate(18.127 6.658)" fill="#054963"/>
      <path id="Path_48003" data-name="Path 48003" d="M22.52,27.126h1.04V30.96h-.953v-.509a3.544,3.544,0,0,1-2.113.6,4.115,4.115,0,0,1-1.911-.455,3.467,3.467,0,0,1-1.408-1.327,4.213,4.213,0,0,1,0-4.078,3.717,3.717,0,0,1,1.451-1.392,4.292,4.292,0,0,1,2.085-.5,4.4,4.4,0,0,1,1.652.3,3.384,3.384,0,0,1,1.262.872l-.672.671a3.051,3.051,0,0,0-2.2-.877,3.166,3.166,0,0,0-1.555.379,2.782,2.782,0,0,0-1.077,1.051,3.209,3.209,0,0,0,.006,3.077,2.62,2.62,0,0,0,1.045,1,2.973,2.973,0,0,0,1.408.342,3.1,3.1,0,0,0,1.034-.179,2.8,2.8,0,0,0,.9-.526Z" transform="translate(9.195 12.863)" fill="#00adbb"/>
      <path id="Path_48004" data-name="Path 48004" d="M22.617,30.7a1.766,1.766,0,0,1-.455-1.295V23.055H23.2v6.26a1.03,1.03,0,0,0,.222.716.839.839,0,0,0,.664.248,1.24,1.24,0,0,0,.511-.107l.054.855a2.181,2.181,0,0,1-.748.13,1.726,1.726,0,0,1-1.288-.461" transform="translate(12.24 12.732)" fill="#00adbb"/>
      <path id="Path_48005" data-name="Path 48005" d="M25.266,29.98A2.738,2.738,0,0,1,24.2,28.935a3.17,3.17,0,0,1,0-3.022,2.7,2.7,0,0,1,1.066-1.04,3.34,3.34,0,0,1,3.072,0,2.72,2.72,0,0,1,1.06,1.04,3.158,3.158,0,0,1,0,3.022,2.764,2.764,0,0,1-1.06,1.045,3.3,3.3,0,0,1-3.072,0m2.529-.785a1.816,1.816,0,0,0,.689-.714,2.371,2.371,0,0,0,0-2.113,1.774,1.774,0,0,0-.689-.709,2.09,2.09,0,0,0-1.982,0,1.792,1.792,0,0,0-.692.709,2.332,2.332,0,0,0,0,2.113,1.835,1.835,0,0,0,.692.714,2.057,2.057,0,0,0,1.982,0" transform="translate(13.154 13.53)" fill="#00adbb"/>
      <path id="Path_48006" data-name="Path 48006" d="M32.951,25.664a2.671,2.671,0,0,1,1.035,1.029,3.059,3.059,0,0,1,.373,1.527,3.1,3.1,0,0,1-.373,1.534,2.642,2.642,0,0,1-1.035,1.034,3.022,3.022,0,0,1-1.495.368,2.717,2.717,0,0,1-1.169-.248,2.238,2.238,0,0,1-.877-.726v.91h-1V23.055h1.04v3.162a2.194,2.194,0,0,1,.866-.688,2.745,2.745,0,0,1,1.136-.233,3.022,3.022,0,0,1,1.495.368m-.59,4.328a1.835,1.835,0,0,0,.692-.714,2.306,2.306,0,0,0,0-2.113,1.792,1.792,0,0,0-.692-.709,2.078,2.078,0,0,0-1.976,0,1.746,1.746,0,0,0-.694.709,2.357,2.357,0,0,0,0,2.113,1.786,1.786,0,0,0,.694.714,2.045,2.045,0,0,0,1.976,0" transform="translate(15.693 12.732)" fill="#00adbb"/>
      <path id="Path_48007" data-name="Path 48007" d="M38.6,24.553v5.74h-1v-.91a2.25,2.25,0,0,1-.877.726,2.719,2.719,0,0,1-1.17.248,3.022,3.022,0,0,1-1.495-.368,2.628,2.628,0,0,1-1.034-1.034,3.079,3.079,0,0,1-.374-1.534A3.043,3.043,0,0,1,33.03,25.9a2.657,2.657,0,0,1,1.034-1.029,3.022,3.022,0,0,1,1.495-.368,2.752,2.752,0,0,1,1.138.233,2.216,2.216,0,0,1,.866.688v-.866Zm-1.971,4.641a1.8,1.8,0,0,0,.694-.714,2.371,2.371,0,0,0,0-2.113,1.755,1.755,0,0,0-.694-.709,2.078,2.078,0,0,0-1.976,0,1.785,1.785,0,0,0-.694.709,2.319,2.319,0,0,0,0,2.113,1.828,1.828,0,0,0,.694.714,2.045,2.045,0,0,0,1.976,0" transform="translate(18.036 13.53)" fill="#00adbb"/>
      <path id="Path_48008" data-name="Path 48008" d="M38.037,30.7a1.766,1.766,0,0,1-.455-1.295V23.055h1.04v6.26a1.037,1.037,0,0,0,.222.716.844.844,0,0,0,.666.248,1.233,1.233,0,0,0,.509-.107l.054.855a2.168,2.168,0,0,1-.748.13,1.728,1.728,0,0,1-1.288-.461" transform="translate(20.756 12.732)" fill="#00adbb"/>
      <path id="Path_48009" data-name="Path 48009" d="M47.587,27.665a1.9,1.9,0,0,1,.382,1.219,1.756,1.756,0,0,1-.742,1.517,3.7,3.7,0,0,1-2.162.531H41.448V23.348h3.4a3.353,3.353,0,0,1,2.009.52,1.686,1.686,0,0,1,.711,1.441,1.881,1.881,0,0,1-.276,1.029A1.809,1.809,0,0,1,46.55,27a1.927,1.927,0,0,1,1.037.666m-5.056-3.44v2.426h2.22a2.26,2.26,0,0,0,1.284-.307,1.135,1.135,0,0,0,0-1.81,2.26,2.26,0,0,0-1.284-.309Zm3.878,5.525a1.055,1.055,0,0,0,.466-.953q0-1.267-1.853-1.267h-2.49v2.522h2.49a2.571,2.571,0,0,0,1.388-.3" transform="translate(22.892 12.894)" fill="#00adbb"/>
      <path id="Path_48010" data-name="Path 48010" d="M52.063,24.553v5.74h-1v-.91a2.25,2.25,0,0,1-.877.726,2.719,2.719,0,0,1-1.17.248,3.022,3.022,0,0,1-1.495-.368,2.628,2.628,0,0,1-1.034-1.034,3.079,3.079,0,0,1-.374-1.534A3.043,3.043,0,0,1,46.49,25.9a2.657,2.657,0,0,1,1.034-1.029,3.022,3.022,0,0,1,1.495-.368,2.752,2.752,0,0,1,1.138.233,2.216,2.216,0,0,1,.866.688v-.866Zm-1.971,4.641a1.8,1.8,0,0,0,.694-.714,2.371,2.371,0,0,0,0-2.113,1.755,1.755,0,0,0-.694-.709,2.078,2.078,0,0,0-1.976,0,1.785,1.785,0,0,0-.694.709,2.319,2.319,0,0,0,0,2.113,1.828,1.828,0,0,0,.694.714,2.045,2.045,0,0,0,1.976,0" transform="translate(25.47 13.53)" fill="#00adbb"/>
      <path id="Path_48011" data-name="Path 48011" d="M55.566,25.133a2.491,2.491,0,0,1,.644,1.858v3.3h-1.04V27.109a1.761,1.761,0,0,0-.4-1.256,1.509,1.509,0,0,0-1.147-.422,1.8,1.8,0,0,0-1.333.492,1.931,1.931,0,0,0-.487,1.414v2.957h-1.04v-5.74h1v.866a2.032,2.032,0,0,1,.851-.683,2.979,2.979,0,0,1,1.219-.237,2.373,2.373,0,0,1,1.739.633" transform="translate(28.036 13.531)" fill="#00adbb"/>
      <path id="Path_48012" data-name="Path 48012" d="M57.292,28.417,56.1,29.522v1.571H55.061V23.055H56.1v5.157l3.131-2.861h1.256l-2.415,2.373,2.654,3.368H59.448Z" transform="translate(30.41 12.733)" fill="#00adbb"/>
      <path id="Path_48013" data-name="Path 48013" d="M24.114,11.2a.583.583,0,0,1-.373.689.582.582,0,0,1-.74-.355l-.016-.05a.582.582,0,0,1,1.113-.334l.016.05" transform="translate(12.685 5.94)" fill="#d3f0f2"/>
      <path id="Path_48014" data-name="Path 48014" d="M23.412,9.556a.582.582,0,0,1-1.038.522l-.023-.047a.576.576,0,0,1,.247-.744.582.582,0,0,1,.792.222l.023.047" transform="translate(12.315 5.088)" fill="#d3f0f2"/>
      <path id="Path_48015" data-name="Path 48015" d="M22.436,8.064a.582.582,0,0,1-.113.775.582.582,0,0,1-.818-.081l-.031-.042a.576.576,0,0,1,.113-.776.584.584,0,0,1,.818.082l.031.042" transform="translate(11.803 4.313)" fill="#d3f0f2"/>
      <path id="Path_48016" data-name="Path 48016" d="M21.215,6.764a.583.583,0,0,1,.023.784.584.584,0,0,1-.82.061.423.423,0,0,1-.039-.036.578.578,0,0,1-.023-.784.585.585,0,0,1,.821-.061l.037.036" transform="translate(11.165 3.638)" fill="#d3f0f2"/>
      <path id="Path_48017" data-name="Path 48017" d="M19.785,5.7a.581.581,0,0,1-.638.97c-.014-.009-.029-.019-.043-.029a.581.581,0,0,1,.638-.969l.043.028" transform="translate(10.418 3.084)" fill="#bae8eb"/>
      <path id="Path_48018" data-name="Path 48018" d="M18.193,4.891a.581.581,0,0,1-.014,1.052.576.576,0,0,1-.446.012.447.447,0,0,1-.048-.02.576.576,0,0,1-.29-.728.582.582,0,0,1,.75-.337.447.447,0,0,1,.048.02" transform="translate(9.586 2.668)" fill="#bae8eb"/>
      <path id="Path_48019" data-name="Path 48019" d="M16.483,4.374A.58.58,0,0,1,16.216,5.5a.466.466,0,0,1-.05-.011.576.576,0,0,1-.413-.667.583.583,0,0,1,.68-.463l.05.012" transform="translate(8.695 2.403)" fill="#bae8eb"/>
      <path id="Path_48020" data-name="Path 48020" d="M14.71,4.162a.583.583,0,0,1,.522.585.58.58,0,0,1-.588.573c-.017,0-.034,0-.051,0a.577.577,0,0,1-.523-.585.583.583,0,0,1,.59-.573c.017,0,.034,0,.051,0" transform="translate(7.77 2.296)" fill="#bae8eb"/>
      <path id="Path_48021" data-name="Path 48021" d="M12.929,4.26a.585.585,0,0,1,.616.486.582.582,0,0,1-.481.666c-.017,0-.036,0-.051.006a.58.58,0,0,1-.135-1.152c.017,0,.034,0,.051-.006" transform="translate(6.841 2.351)" fill="#84d8dd"/>
      <path id="Path_48022" data-name="Path 48022" d="M11.188,4.665a.585.585,0,0,1,.691.371.581.581,0,0,1-.357.74.464.464,0,0,1-.05.014.58.58,0,0,1-.334-1.11l.05-.016" transform="translate(5.937 2.566)" fill="#84d8dd"/>
      <path id="Path_48023" data-name="Path 48023" d="M9.547,5.366a.585.585,0,0,1,.745.247.579.579,0,0,1-.224.79.4.4,0,0,1-.045.022A.581.581,0,0,1,9.5,5.389l.047-.023" transform="translate(5.083 2.935)" fill="#84d8dd"/>
      <path id="Path_48024" data-name="Path 48024" d="M8.052,6.34a.584.584,0,0,1,.776.113.578.578,0,0,1-.082.817.4.4,0,0,1-.04.031.581.581,0,0,1-.7-.93l.042-.031" transform="translate(4.306 3.446)" fill="#84d8dd"/>
      <path id="Path_48025" data-name="Path 48025" d="M6.75,7.559a.582.582,0,0,1,.986.374.578.578,0,0,1-.14.421.423.423,0,0,1-.036.039.581.581,0,0,1-.846-.8l.036-.037" transform="translate(3.63 4.084)" fill="#37c8d0"/>
      <path id="Path_48026" data-name="Path 48026" d="M5.679,8.985a.583.583,0,0,1,1.035.2.573.573,0,0,1-.064.439l-.028.043a.581.581,0,0,1-.972-.636l.028-.043" transform="translate(3.076 4.829)" fill="#37c8d0"/>
      <path id="Path_48027" data-name="Path 48027" d="M4.873,10.575a.586.586,0,0,1,.73-.29.581.581,0,0,1,.338.75l-.022.047a.581.581,0,0,1-1.066-.458.447.447,0,0,1,.02-.048" transform="translate(2.659 5.659)" fill="#37c8d0"/>
      <path id="Path_48028" data-name="Path 48028" d="M4.355,12.281a.583.583,0,0,1,.667-.411.569.569,0,0,1,.373.244.575.575,0,0,1,.092.435.465.465,0,0,1-.012.05.582.582,0,0,1-1.132-.267l.012-.05" transform="translate(2.393 6.549)" fill="#37c8d0"/>
      <path id="Path_48029" data-name="Path 48029" d="M4.142,14.051a.585.585,0,0,1,.587-.522.579.579,0,0,1,.408.175.572.572,0,0,1,.165.413.284.284,0,0,1,0,.051.577.577,0,0,1-.585.522.583.583,0,0,1-.574-.588c0-.017,0-.034,0-.051" transform="translate(2.286 7.471)" fill="#37c8d0"/>
      <path id="Path_48030" data-name="Path 48030" d="M4.241,15.829A.582.582,0,0,1,5.4,15.694c0,.017,0,.034,0,.051a.577.577,0,0,1-.486.615.583.583,0,0,1-.667-.48c0-.017,0-.034-.006-.051" transform="translate(2.341 8.398)" fill="#00aebc"/>
      <path id="Path_48031" data-name="Path 48031" d="M4.646,17.565a.583.583,0,0,1,.373-.689.582.582,0,0,1,.74.355l.016.05a.582.582,0,0,1-1.113.334l-.016-.05" transform="translate(2.556 9.301)" fill="#00aebc"/>
      <path id="Path_48032" data-name="Path 48032" d="M5.349,19.2A.582.582,0,0,1,5.6,18.46a.582.582,0,0,1,.792.222l.023.047a.575.575,0,0,1-.247.744.584.584,0,0,1-.793-.222L5.349,19.2" transform="translate(2.926 10.153)" fill="#00aebc"/>
      <path id="Path_48033" data-name="Path 48033" d="M6.324,20.7a.582.582,0,0,1,.113-.775A.582.582,0,0,1,7.256,20l.031.042a.576.576,0,0,1-.113.776.584.584,0,0,1-.818-.082L6.324,20.7" transform="translate(3.438 10.929)" fill="#00aebc"/>
      <path id="Path_48034" data-name="Path 48034" d="M7.546,22a.583.583,0,0,1-.023-.784.584.584,0,0,1,.82-.061.423.423,0,0,1,.039.036.577.577,0,0,1,.023.782.584.584,0,0,1-.821.062L7.546,22" transform="translate(4.078 11.603)" fill="#00adbb"/>
      <path id="Path_48035" data-name="Path 48035" d="M8.974,23.064a.581.581,0,0,1,.638-.97.427.427,0,0,1,.043.029.581.581,0,0,1-.638.969l-.043-.028" transform="translate(4.824 12.157)" fill="#00adbb"/>
      <path id="Path_48036" data-name="Path 48036" d="M10.568,23.87a.583.583,0,0,1-.29-.728.579.579,0,0,1,.75-.337.445.445,0,0,1,.048.02.576.576,0,0,1,.29.728.582.582,0,0,1-.75.337.446.446,0,0,1-.048-.02" transform="translate(5.656 12.573)" fill="#00adbb"/>
      <path id="Path_48037" data-name="Path 48037" d="M12.278,24.385a.58.58,0,0,1,.267-1.129.258.258,0,0,1,.05.012.575.575,0,0,1,.413.666.583.583,0,0,1-.68.463l-.05-.012" transform="translate(6.547 12.838)" fill="#00adbb"/>
      <path id="Path_48038" data-name="Path 48038" d="M14.05,24.6a.583.583,0,0,1-.522-.585.58.58,0,0,1,.588-.573c.017,0,.034,0,.051,0a.577.577,0,0,1,.523.585.583.583,0,0,1-.59.573c-.017,0-.034,0-.051,0" transform="translate(7.471 12.945)" fill="#00adbb"/>
      <path id="Path_48039" data-name="Path 48039" d="M24.114,11.188a.584.584,0,0,1-.373.691.581.581,0,0,1-.74-.357.465.465,0,0,1-.016-.05.582.582,0,0,1,1.113-.334l.016.05" transform="translate(12.685 5.936)" fill="#d3f0f2"/>
      <path id="Path_48040" data-name="Path 48040" d="M23.412,9.547a.585.585,0,0,1-.247.745.58.58,0,0,1-.792-.224l-.023-.045A.582.582,0,0,1,23.389,9.5l.023.047" transform="translate(12.315 5.082)" fill="#d3f0f2"/>
      <path id="Path_48041" data-name="Path 48041" d="M22.436,8.052a.584.584,0,0,1-.113.776.582.582,0,0,1-.818-.081l-.031-.042a.582.582,0,0,1,.931-.7l.031.042" transform="translate(11.803 4.305)" fill="#d3f0f2"/>
      <path id="Path_48042" data-name="Path 48042" d="M21.215,6.75a.581.581,0,0,1-.8.846.423.423,0,0,1-.039-.036.582.582,0,0,1,.8-.846l.037.036" transform="translate(11.165 3.63)" fill="#d3f0f2"/>
      <path id="Path_48043" data-name="Path 48043" d="M19.785,5.679a.582.582,0,0,1-.2,1.035.577.577,0,0,1-.441-.064L19.1,6.623a.582.582,0,0,1,.638-.972l.043.028" transform="translate(10.418 3.075)" fill="#bae8eb"/>
      <path id="Path_48044" data-name="Path 48044" d="M18.193,4.873a.586.586,0,0,1,.29.73.573.573,0,0,1-.3.324.583.583,0,0,1-.446.014.452.452,0,0,1-.048-.022.581.581,0,0,1,.459-1.066.447.447,0,0,1,.048.02" transform="translate(9.586 2.658)" fill="#bae8eb"/>
      <path id="Path_48045" data-name="Path 48045" d="M16.483,4.355a.582.582,0,0,1-.267,1.132.464.464,0,0,1-.05-.012.576.576,0,0,1-.413-.667.583.583,0,0,1,.68-.464l.05.012" transform="translate(8.695 2.392)" fill="#bae8eb"/>
      <path id="Path_48046" data-name="Path 48046" d="M14.71,4.142a.584.584,0,0,1,.522.587.58.58,0,0,1-.588.573c-.017,0-.034,0-.051,0a.582.582,0,0,1,.067-1.161c.017,0,.034,0,.051,0" transform="translate(7.77 2.285)" fill="#bae8eb"/>
      <path id="Path_48047" data-name="Path 48047" d="M12.929,4.241a.586.586,0,0,1,.616.487.582.582,0,0,1-.481.667c-.017,0-.036,0-.051,0a.581.581,0,0,1-.135-1.153c.017,0,.034,0,.051-.006" transform="translate(6.841 2.34)" fill="#84d8dd"/>
      <path id="Path_48048" data-name="Path 48048" d="M11.188,4.646a.584.584,0,0,1,.691.373.581.581,0,0,1-.357.74.464.464,0,0,1-.05.016.582.582,0,0,1-.334-1.113l.05-.016" transform="translate(5.937 2.556)" fill="#84d8dd"/>
      <path id="Path_48049" data-name="Path 48049" d="M9.547,5.348a.585.585,0,0,1,.745.247.58.58,0,0,1-.224.792l-.045.023A.582.582,0,0,1,9.5,5.371l.047-.023" transform="translate(5.083 2.925)" fill="#84d8dd"/>
      <path id="Path_48050" data-name="Path 48050" d="M8.052,6.324a.584.584,0,0,1,.776.113.58.58,0,0,1-.082.818.4.4,0,0,1-.04.031.582.582,0,0,1-.7-.931l.042-.031" transform="translate(4.306 3.437)" fill="#84d8dd"/>
      <path id="Path_48051" data-name="Path 48051" d="M6.75,7.546a.581.581,0,0,1,.846.8.423.423,0,0,1-.036.039.582.582,0,0,1-.846-.8l.036-.037" transform="translate(3.63 4.077)" fill="#37c8d0"/>
      <path id="Path_48052" data-name="Path 48052" d="M5.679,8.974a.583.583,0,0,1,1.035.2.577.577,0,0,1-.064.441l-.028.043a.582.582,0,0,1-.972-.638l.028-.043" transform="translate(3.076 4.823)" fill="#37c8d0"/>
      <path id="Path_48053" data-name="Path 48053" d="M4.873,10.568a.586.586,0,0,1,.73-.29.573.573,0,0,1,.324.3.583.583,0,0,1,.014.446.453.453,0,0,1-.022.048.581.581,0,0,1-1.066-.459.447.447,0,0,1,.02-.048" transform="translate(2.659 5.655)" fill="#37c8d0"/>
      <path id="Path_48054" data-name="Path 48054" d="M4.355,12.278a.582.582,0,0,1,1.132.267.464.464,0,0,1-.012.05.576.576,0,0,1-.667.413.583.583,0,0,1-.464-.68l.012-.05" transform="translate(2.393 6.546)" fill="#37c8d0"/>
      <path id="Path_48055" data-name="Path 48055" d="M4.142,14.05a.584.584,0,0,1,.587-.522.58.58,0,0,1,.573.588.284.284,0,0,1,0,.051.577.577,0,0,1-.585.523.583.583,0,0,1-.574-.59c0-.017,0-.034,0-.051" transform="translate(2.286 7.471)" fill="#37c8d0"/>
      <path id="Path_48056" data-name="Path 48056" d="M4.241,15.833a.586.586,0,0,1,.487-.616A.582.582,0,0,1,5.4,15.7c0,.017,0,.034,0,.051a.581.581,0,0,1-1.153.135c0-.017,0-.034-.006-.051" transform="translate(2.341 8.399)" fill="#00aebc"/>
      <path id="Path_48057" data-name="Path 48057" d="M4.646,17.572a.584.584,0,0,1,.373-.691.581.581,0,0,1,.74.357.464.464,0,0,1,.016.05.582.582,0,0,1-1.113.334l-.016-.05" transform="translate(2.556 9.304)" fill="#00aebc"/>
      <path id="Path_48058" data-name="Path 48058" d="M5.349,19.214a.585.585,0,0,1,.247-.745.581.581,0,0,1,.792.224l.023.045a.58.58,0,0,1-.247.747.586.586,0,0,1-.793-.224l-.022-.047" transform="translate(2.926 10.158)" fill="#00aebc"/>
      <path id="Path_48059" data-name="Path 48059" d="M6.324,20.708a.584.584,0,0,1,.113-.776.582.582,0,0,1,.818.081l.031.042a.582.582,0,0,1-.931.7l-.031-.042" transform="translate(3.438 10.935)" fill="#00aebc"/>
      <path id="Path_48060" data-name="Path 48060" d="M7.546,22.011a.581.581,0,0,1,.8-.846.423.423,0,0,1,.039.036.582.582,0,0,1-.8.846l-.037-.036" transform="translate(4.078 11.611)" fill="#00adbb"/>
      <path id="Path_48061" data-name="Path 48061" d="M8.974,23.082a.583.583,0,0,1,.2-1.035.577.577,0,0,1,.441.064l.043.028a.582.582,0,0,1-.638.972l-.043-.028" transform="translate(4.824 12.165)" fill="#00adbb"/>
      <path id="Path_48062" data-name="Path 48062" d="M10.568,23.888a.586.586,0,0,1-.29-.73.573.573,0,0,1,.3-.324.583.583,0,0,1,.446-.014l.048.02a.582.582,0,0,1-.459,1.068.448.448,0,0,1-.048-.02" transform="translate(5.656 12.582)" fill="#00adbb"/>
      <path id="Path_48063" data-name="Path 48063" d="M12.278,24.405a.582.582,0,0,1,.267-1.132.464.464,0,0,1,.05.012.577.577,0,0,1,.413.667.583.583,0,0,1-.68.464l-.05-.012" transform="translate(6.547 12.848)" fill="#00adbb"/>
      <path id="Path_48064" data-name="Path 48064" d="M14.05,24.618a.584.584,0,0,1-.522-.587.58.58,0,0,1,.588-.573.284.284,0,0,1,.051,0,.577.577,0,0,1,.523.585.583.583,0,0,1-.59.574c-.017,0-.034,0-.051,0" transform="translate(7.471 12.955)" fill="#00adbb"/>
      <path id="Path_48065" data-name="Path 48065" d="M25.357,10.816a.657.657,0,0,1-.419.778.654.654,0,0,1-.834-.4c-.006-.019-.011-.037-.016-.056a.648.648,0,0,1,.418-.778.656.656,0,0,1,.834.4c.006.019.012.037.017.056" transform="translate(13.292 5.7)" fill="#d3f0f2"/>
      <path id="Path_48066" data-name="Path 48066" d="M24.567,8.968a.657.657,0,0,1-.278.838.654.654,0,0,1-.889-.25.418.418,0,0,1-.026-.053.654.654,0,0,1,1.167-.587c.009.017.019.034.026.051" transform="translate(12.876 4.739)" fill="#d3f0f2"/>
      <path id="Path_48067" data-name="Path 48067" d="M23.468,7.287a.654.654,0,0,1-.607,1.018.636.636,0,0,1-.439-.238.272.272,0,0,1-.037-.047.655.655,0,0,1,1.051-.781l.033.047" transform="translate(12.301 3.865)" fill="#d3f0f2"/>
      <path id="Path_48068" data-name="Path 48068" d="M22.094,5.821a.659.659,0,0,1,.026.883.656.656,0,0,1-.924.068l-.042-.04a.65.65,0,0,1-.026-.882.657.657,0,0,1,.924-.07l.042.04" transform="translate(11.581 3.105)" fill="#d3f0f2"/>
      <path id="Path_48069" data-name="Path 48069" d="M20.486,4.617a.656.656,0,0,1,.179.865.654.654,0,0,1-.9.228.342.342,0,0,1-.05-.033.654.654,0,0,1,.719-1.091.509.509,0,0,1,.048.031" transform="translate(10.741 2.481)" fill="#bae8eb"/>
      <path id="Path_48070" data-name="Path 48070" d="M18.695,3.709a.657.657,0,0,1,.326.821.649.649,0,0,1-.343.365.656.656,0,0,1-.5.016l-.053-.023a.655.655,0,0,1,.517-1.2l.053.023" transform="translate(9.806 2.012)" fill="#bae8eb"/>
      <path id="Path_48071" data-name="Path 48071" d="M16.773,3.128a.656.656,0,0,1,.463.751.643.643,0,0,1-.275.419.653.653,0,0,1-.491.1c-.017,0-.037-.008-.054-.014a.652.652,0,0,1-.466-.751.658.658,0,0,1,.767-.522l.056.014" transform="translate(8.803 1.713)" fill="#bae8eb"/>
      <path id="Path_48072" data-name="Path 48072" d="M14.777,2.888a.656.656,0,0,1,.587.66.655.655,0,0,1-.661.646c-.02,0-.039,0-.059,0a.655.655,0,0,1,.076-1.305c.019,0,.039,0,.057,0" transform="translate(7.764 1.593)" fill="#bae8eb"/>
      <path id="Path_48073" data-name="Path 48073" d="M12.772,3a.656.656,0,0,1,.692.548.649.649,0,0,1-.113.487.658.658,0,0,1-.427.264l-.057.006A.655.655,0,0,1,12.714,3c.019,0,.039,0,.057-.006" transform="translate(6.719 1.654)" fill="#84d8dd"/>
      <path id="Path_48074" data-name="Path 48074" d="M10.816,3.456a.657.657,0,0,1,.778.419.654.654,0,0,1-.4.834c-.019.006-.037.011-.056.016a.648.648,0,0,1-.778-.418.656.656,0,0,1,.4-.834c.019-.006.037-.012.056-.017" transform="translate(5.701 1.897)" fill="#84d8dd"/>
      <path id="Path_48075" data-name="Path 48075" d="M8.968,4.245a.657.657,0,0,1,.838.278.654.654,0,0,1-.25.889.418.418,0,0,1-.053.026.654.654,0,0,1-.587-1.167c.017-.009.034-.019.051-.026" transform="translate(4.74 2.313)" fill="#84d8dd"/>
      <path id="Path_48076" data-name="Path 48076" d="M7.287,5.344a.654.654,0,0,1,1.018.607.643.643,0,0,1-.238.441.368.368,0,0,1-.047.036A.655.655,0,0,1,7.24,5.378l.047-.034" transform="translate(3.866 2.889)" fill="#84d8dd"/>
      <path id="Path_48077" data-name="Path 48077" d="M5.821,6.717A.659.659,0,0,1,6.7,6.691a.656.656,0,0,1,.068.924l-.04.042a.65.65,0,0,1-.882.026.657.657,0,0,1-.07-.924l.04-.042" transform="translate(3.106 3.608)" fill="#37c8d0"/>
      <path id="Path_48078" data-name="Path 48078" d="M4.617,8.325a.656.656,0,0,1,.865-.179.654.654,0,0,1,.228.9.342.342,0,0,1-.033.05.649.649,0,0,1-.865.179.656.656,0,0,1-.227-.9l.031-.048" transform="translate(2.482 4.448)" fill="#37c8d0"/>
      <path id="Path_48079" data-name="Path 48079" d="M3.711,10.117a.655.655,0,0,1,1.186.017.649.649,0,0,1,.016.5l-.025.053a.65.65,0,0,1-.82.328.657.657,0,0,1-.382-.844l.025-.053" transform="translate(2.013 5.384)" fill="#37c8d0"/>
      <path id="Path_48080" data-name="Path 48080" d="M3.128,12.04a.659.659,0,0,1,.751-.464.655.655,0,0,1,.522.765c0,.019-.008.037-.014.056a.654.654,0,0,1-1.271-.3c0-.019.008-.037.012-.056" transform="translate(1.714 6.386)" fill="#37c8d0"/>
      <path id="Path_48081" data-name="Path 48081" d="M2.888,14.035a.657.657,0,0,1,.66-.587.655.655,0,0,1,.646.661c0,.02,0,.039,0,.059a.655.655,0,0,1-1.305-.076c0-.019,0-.039,0-.057" transform="translate(1.593 7.427)" fill="#37c8d0"/>
      <path id="Path_48082" data-name="Path 48082" d="M3,16.041a.655.655,0,0,1,1.3-.152c0,.019,0,.037.006.057a.654.654,0,0,1-1.3.152C3,16.08,3,16.06,3,16.041" transform="translate(1.655 8.471)" fill="#00aebc"/>
      <path id="Path_48083" data-name="Path 48083" d="M3.456,18a.657.657,0,0,1,.419-.778.654.654,0,0,1,.834.4c.006.019.011.037.016.056a.648.648,0,0,1-.418.778.655.655,0,0,1-.834-.4c-.006-.019-.012-.037-.017-.056" transform="translate(1.898 9.489)" fill="#00aebc"/>
      <path id="Path_48084" data-name="Path 48084" d="M4.245,19.843A.657.657,0,0,1,4.523,19a.654.654,0,0,1,.889.25.335.335,0,0,1,.026.053.654.654,0,0,1-1.167.587.53.53,0,0,1-.026-.051" transform="translate(2.313 10.449)" fill="#00aebc"/>
      <path id="Path_48085" data-name="Path 48085" d="M5.344,21.525a.654.654,0,0,1,.607-1.018.643.643,0,0,1,.441.237.368.368,0,0,1,.036.047.655.655,0,0,1-1.049.781l-.034-.047" transform="translate(2.89 11.324)" fill="#00aebc"/>
      <path id="Path_48086" data-name="Path 48086" d="M6.717,22.991a.659.659,0,0,1-.026-.883.656.656,0,0,1,.924-.068l.042.04a.65.65,0,0,1,.026.882.657.657,0,0,1-.924.07l-.042-.04" transform="translate(3.609 12.084)" fill="#00adbb"/>
      <path id="Path_48087" data-name="Path 48087" d="M8.325,24.2a.656.656,0,0,1-.179-.865.654.654,0,0,1,.9-.228.534.534,0,0,1,.05.031.655.655,0,0,1-.719,1.093L8.325,24.2" transform="translate(4.449 12.708)" fill="#00adbb"/>
      <path id="Path_48088" data-name="Path 48088" d="M10.117,25.1a.657.657,0,0,1-.326-.821.654.654,0,0,1,.843-.38l.053.023a.655.655,0,0,1-.517,1.2l-.053-.023" transform="translate(5.384 13.176)" fill="#00adbb"/>
      <path id="Path_48089" data-name="Path 48089" d="M12.04,25.685a.655.655,0,0,1,.3-1.273l.056.014a.654.654,0,0,1-.3,1.271c-.019,0-.037-.008-.056-.012" transform="translate(6.387 13.476)" fill="#00adbb"/>
      <path id="Path_48090" data-name="Path 48090" d="M14.034,25.923a.66.66,0,0,1-.588-.66.657.657,0,0,1,.663-.646c.02,0,.039,0,.059,0a.655.655,0,0,1-.076,1.305c-.019,0-.039,0-.057,0" transform="translate(7.426 13.596)" fill="#00adbb"/>
      <path id="Path_48091" data-name="Path 48091" d="M25.357,10.816a.657.657,0,0,1-.419.778.654.654,0,0,1-.834-.4c-.006-.019-.011-.037-.016-.056a.648.648,0,0,1,.418-.778.656.656,0,0,1,.834.4c.006.019.012.037.017.056" transform="translate(13.292 5.7)" fill="#d3f0f2"/>
      <path id="Path_48092" data-name="Path 48092" d="M24.567,8.968a.657.657,0,0,1-.278.838.654.654,0,0,1-.889-.25.418.418,0,0,1-.026-.053.654.654,0,0,1,1.167-.587c.009.017.019.034.026.051" transform="translate(12.876 4.739)" fill="#d3f0f2"/>
      <path id="Path_48093" data-name="Path 48093" d="M23.468,7.287a.654.654,0,0,1-.607,1.018.636.636,0,0,1-.439-.238.272.272,0,0,1-.037-.047.655.655,0,0,1,1.051-.781l.033.047" transform="translate(12.301 3.865)" fill="#d3f0f2"/>
      <path id="Path_48094" data-name="Path 48094" d="M22.094,5.821a.659.659,0,0,1,.026.883.656.656,0,0,1-.924.068l-.042-.04a.65.65,0,0,1-.026-.882.657.657,0,0,1,.924-.07l.042.04" transform="translate(11.581 3.105)" fill="#d3f0f2"/>
      <path id="Path_48095" data-name="Path 48095" d="M20.486,4.617a.656.656,0,0,1,.179.865.654.654,0,0,1-.9.228.342.342,0,0,1-.05-.033.654.654,0,0,1,.719-1.091.509.509,0,0,1,.048.031" transform="translate(10.741 2.481)" fill="#bae8eb"/>
      <path id="Path_48096" data-name="Path 48096" d="M18.695,3.709a.657.657,0,0,1,.326.821.649.649,0,0,1-.343.365.656.656,0,0,1-.5.016l-.053-.023a.655.655,0,0,1,.517-1.2l.053.023" transform="translate(9.806 2.012)" fill="#bae8eb"/>
      <path id="Path_48097" data-name="Path 48097" d="M16.773,3.128a.656.656,0,0,1,.463.751.643.643,0,0,1-.275.419.653.653,0,0,1-.491.1c-.017,0-.037-.008-.054-.014a.652.652,0,0,1-.466-.751.658.658,0,0,1,.767-.522l.056.014" transform="translate(8.803 1.713)" fill="#bae8eb"/>
      <path id="Path_48098" data-name="Path 48098" d="M14.777,2.888a.656.656,0,0,1,.587.66.655.655,0,0,1-.661.646c-.02,0-.039,0-.059,0a.655.655,0,0,1,.076-1.305c.019,0,.039,0,.057,0" transform="translate(7.764 1.593)" fill="#bae8eb"/>
      <path id="Path_48099" data-name="Path 48099" d="M12.772,3a.656.656,0,0,1,.692.548.649.649,0,0,1-.113.487.658.658,0,0,1-.427.264l-.057.006A.655.655,0,0,1,12.714,3c.019,0,.039,0,.057-.006" transform="translate(6.719 1.654)" fill="#84d8dd"/>
      <path id="Path_48100" data-name="Path 48100" d="M10.816,3.456a.657.657,0,0,1,.778.419.654.654,0,0,1-.4.834c-.019.006-.037.011-.056.016a.648.648,0,0,1-.778-.418.656.656,0,0,1,.4-.834c.019-.006.037-.012.056-.017" transform="translate(5.701 1.897)" fill="#84d8dd"/>
      <path id="Path_48101" data-name="Path 48101" d="M8.968,4.245a.657.657,0,0,1,.838.278.654.654,0,0,1-.25.889.418.418,0,0,1-.053.026.654.654,0,0,1-.587-1.167c.017-.009.034-.019.051-.026" transform="translate(4.74 2.313)" fill="#84d8dd"/>
      <path id="Path_48102" data-name="Path 48102" d="M7.287,5.344a.654.654,0,0,1,1.018.607.643.643,0,0,1-.238.441.368.368,0,0,1-.047.036A.655.655,0,0,1,7.24,5.378l.047-.034" transform="translate(3.866 2.889)" fill="#84d8dd"/>
      <path id="Path_48103" data-name="Path 48103" d="M5.821,6.717A.659.659,0,0,1,6.7,6.691a.656.656,0,0,1,.068.924l-.04.042a.65.65,0,0,1-.882.026.657.657,0,0,1-.07-.924l.04-.042" transform="translate(3.106 3.608)" fill="#37c8d0"/>
      <path id="Path_48104" data-name="Path 48104" d="M4.617,8.325a.656.656,0,0,1,.865-.179.654.654,0,0,1,.228.9.342.342,0,0,1-.033.05.649.649,0,0,1-.865.179.656.656,0,0,1-.227-.9l.031-.048" transform="translate(2.482 4.448)" fill="#37c8d0"/>
      <path id="Path_48105" data-name="Path 48105" d="M3.711,10.117a.655.655,0,0,1,1.186.017.649.649,0,0,1,.016.5l-.025.053a.65.65,0,0,1-.82.328.657.657,0,0,1-.382-.844l.025-.053" transform="translate(2.013 5.384)" fill="#37c8d0"/>
      <path id="Path_48106" data-name="Path 48106" d="M3.128,12.04a.659.659,0,0,1,.751-.464.655.655,0,0,1,.522.765c0,.019-.008.037-.014.056a.654.654,0,0,1-1.271-.3c0-.019.008-.037.012-.056" transform="translate(1.714 6.386)" fill="#37c8d0"/>
      <path id="Path_48107" data-name="Path 48107" d="M2.888,14.035a.657.657,0,0,1,.66-.587.655.655,0,0,1,.646.661c0,.02,0,.039,0,.059a.655.655,0,0,1-1.305-.076c0-.019,0-.039,0-.057" transform="translate(1.593 7.427)" fill="#37c8d0"/>
      <path id="Path_48108" data-name="Path 48108" d="M3,16.041a.655.655,0,0,1,1.3-.152c0,.019,0,.037.006.057a.654.654,0,0,1-1.3.152C3,16.08,3,16.06,3,16.041" transform="translate(1.655 8.471)" fill="#00aebc"/>
      <path id="Path_48109" data-name="Path 48109" d="M3.456,18a.657.657,0,0,1,.419-.778.654.654,0,0,1,.834.4c.006.019.011.037.016.056a.648.648,0,0,1-.418.778.655.655,0,0,1-.834-.4c-.006-.019-.012-.037-.017-.056" transform="translate(1.898 9.489)" fill="#00aebc"/>
      <path id="Path_48110" data-name="Path 48110" d="M4.245,19.843A.657.657,0,0,1,4.523,19a.654.654,0,0,1,.889.25.335.335,0,0,1,.026.053.654.654,0,0,1-1.167.587.53.53,0,0,1-.026-.051" transform="translate(2.313 10.449)" fill="#00aebc"/>
      <path id="Path_48111" data-name="Path 48111" d="M5.344,21.525a.654.654,0,0,1,.607-1.018.643.643,0,0,1,.441.237.368.368,0,0,1,.036.047.655.655,0,0,1-1.049.781l-.034-.047" transform="translate(2.89 11.324)" fill="#00aebc"/>
      <path id="Path_48112" data-name="Path 48112" d="M6.717,22.991a.659.659,0,0,1-.026-.883.656.656,0,0,1,.924-.068l.042.04a.65.65,0,0,1,.026.882.657.657,0,0,1-.924.07l-.042-.04" transform="translate(3.609 12.084)" fill="#00adbb"/>
      <path id="Path_48113" data-name="Path 48113" d="M8.325,24.2a.656.656,0,0,1-.179-.865.654.654,0,0,1,.9-.228.534.534,0,0,1,.05.031.655.655,0,0,1-.719,1.093L8.325,24.2" transform="translate(4.449 12.708)" fill="#00adbb"/>
      <path id="Path_48114" data-name="Path 48114" d="M10.117,25.1a.657.657,0,0,1-.326-.821.654.654,0,0,1,.843-.38l.053.023a.655.655,0,0,1-.517,1.2l-.053-.023" transform="translate(5.384 13.176)" fill="#00adbb"/>
      <path id="Path_48115" data-name="Path 48115" d="M12.04,25.685a.655.655,0,0,1,.3-1.273l.056.014a.654.654,0,0,1-.3,1.271c-.019,0-.037-.008-.056-.012" transform="translate(6.387 13.476)" fill="#00adbb"/>
      <path id="Path_48116" data-name="Path 48116" d="M14.034,25.923a.66.66,0,0,1-.588-.66.657.657,0,0,1,.663-.646c.02,0,.039,0,.059,0a.655.655,0,0,1-.076,1.305c-.019,0-.039,0-.057,0" transform="translate(7.426 13.596)" fill="#00adbb"/>
      <path id="Path_48117" data-name="Path 48117" d="M26.722,10.405a.738.738,0,0,1-.469.872.724.724,0,0,1-.56-.031.734.734,0,0,1-.376-.419c-.006-.022-.012-.042-.017-.062a.729.729,0,0,1,.469-.874.737.737,0,0,1,.936.452c.006.02.012.042.017.062" transform="translate(13.96 5.44)" fill="#d3f0f2"/>
      <path id="Path_48118" data-name="Path 48118" d="M25.837,8.332a.736.736,0,0,1-.312.941.732.732,0,0,1-1-.281.522.522,0,0,1-.029-.059.734.734,0,0,1,1.31-.658c.011.019.02.037.029.057" transform="translate(13.493 4.362)" fill="#d3f0f2"/>
      <path id="Path_48119" data-name="Path 48119" d="M24.6,6.446a.74.74,0,0,1-.141.981.738.738,0,0,1-1.035-.1c-.014-.017-.026-.034-.039-.053a.734.734,0,0,1,1.177-.877c.014.017.026.036.039.053" transform="translate(12.847 3.381)" fill="#d3f0f2"/>
      <path id="Path_48120" data-name="Path 48120" d="M23.063,4.8a.736.736,0,0,1,.028.99.717.717,0,0,1-.5.253.734.734,0,0,1-.534-.175l-.048-.045a.735.735,0,0,1,1.007-1.068c.017.014.033.029.048.045" transform="translate(12.04 2.528)" fill="#d3f0f2"/>
      <path id="Path_48121" data-name="Path 48121" d="M21.259,3.448a.739.739,0,0,1,.2.97.734.734,0,0,1-1.007.256c-.019-.011-.037-.023-.054-.036A.734.734,0,0,1,21.2,3.413c.019.011.037.023.054.036" transform="translate(11.097 1.827)" fill="#bae8eb"/>
      <path id="Path_48122" data-name="Path 48122" d="M19.248,2.431a.735.735,0,0,1-.019,1.33.728.728,0,0,1-.562.017c-.02-.008-.04-.016-.059-.025A.735.735,0,0,1,19.187,2.4c.022.008.04.017.061.026" transform="translate(10.047 1.301)" fill="#bae8eb"/>
      <path id="Path_48123" data-name="Path 48123" d="M17.09,1.778a.737.737,0,0,1,.52.843.723.723,0,0,1-.307.47.732.732,0,0,1-.55.115c-.022,0-.043-.009-.064-.016a.729.729,0,0,1-.522-.843.737.737,0,0,1,.858-.585c.022,0,.043.009.064.016" transform="translate(8.922 0.966)" fill="#bae8eb"/>
      <path id="Path_48124" data-name="Path 48124" d="M14.852,1.508a.738.738,0,0,1,.66.74.739.739,0,0,1-.744.725c-.022,0-.043,0-.065,0a.734.734,0,0,1,.084-1.464c.022,0,.043,0,.065,0" transform="translate(7.756 0.83)" fill="#bae8eb"/>
      <path id="Path_48125" data-name="Path 48125" d="M12.6,1.633a.738.738,0,0,1,.778.615.735.735,0,0,1-.607.843c-.022,0-.042.006-.064.008a.735.735,0,0,1-.172-1.458c.022,0,.043-.006.065-.008" transform="translate(6.583 0.9)" fill="#84d8dd"/>
      <path id="Path_48126" data-name="Path 48126" d="M10.405,2.146a.737.737,0,0,1,.872.47.732.732,0,0,1-.45.934.554.554,0,0,1-.062.019.734.734,0,0,1-.422-1.4c.02-.006.042-.014.062-.019" transform="translate(5.44 1.172)" fill="#84d8dd"/>
      <path id="Path_48127" data-name="Path 48127" d="M8.332,3.032a.736.736,0,0,1,.941.312.732.732,0,0,1-.281,1,.522.522,0,0,1-.059.029.734.734,0,0,1-.658-1.31c.019-.011.037-.02.057-.029" transform="translate(4.362 1.638)" fill="#84d8dd"/>
      <path id="Path_48128" data-name="Path 48128" d="M6.446,4.265a.738.738,0,0,1,.981.143.736.736,0,0,1-.1,1.034c-.017.014-.034.026-.053.039A.734.734,0,0,1,6.393,4.3c.017-.014.036-.026.053-.039" transform="translate(3.382 2.285)" fill="#84d8dd"/>
      <path id="Path_48129" data-name="Path 48129" d="M4.8,5.806a.738.738,0,0,1,.99-.029.725.725,0,0,1,.255.5.743.743,0,0,1-.175.534c-.016.017-.029.033-.047.048A.734.734,0,0,1,4.756,5.854.42.42,0,0,1,4.8,5.806" transform="translate(2.529 3.092)" fill="#37c8d0"/>
      <path id="Path_48130" data-name="Path 48130" d="M3.448,7.61a.737.737,0,0,1,.97-.2.733.733,0,0,1,.256,1.006c-.011.019-.023.037-.034.054a.735.735,0,0,1-1.228-.806c.011-.019.023-.037.036-.054" transform="translate(1.828 4.035)" fill="#37c8d0"/>
      <path id="Path_48131" data-name="Path 48131" d="M2.431,9.622a.737.737,0,0,1,.921-.366.734.734,0,0,1,.427.947c-.008.02-.016.04-.025.059a.734.734,0,0,1-1.347-.579c.008-.02.016-.04.025-.061" transform="translate(1.302 5.085)" fill="#37c8d0"/>
      <path id="Path_48132" data-name="Path 48132" d="M1.778,11.78a.737.737,0,0,1,.843-.52.723.723,0,0,1,.47.307.732.732,0,0,1,.115.55c0,.022-.009.043-.016.064a.729.729,0,0,1-.843.522.737.737,0,0,1-.585-.858c0-.022.009-.043.016-.064" transform="translate(0.966 6.211)" fill="#37c8d0"/>
      <path id="Path_48133" data-name="Path 48133" d="M1.509,14.018a.74.74,0,0,1,.74-.66.734.734,0,0,1,.723.744.458.458,0,0,1,0,.065.734.734,0,0,1-1.464-.084c0-.022,0-.043,0-.065" transform="translate(0.832 7.377)" fill="#37c8d0"/>
      <path id="Path_48134" data-name="Path 48134" d="M1.633,16.268a.738.738,0,0,1,.615-.778.735.735,0,0,1,.843.607c0,.022.006.042.008.064a.735.735,0,0,1-1.458.172c0-.022-.006-.043-.008-.065" transform="translate(0.901 8.549)" fill="#00aebc"/>
      <path id="Path_48135" data-name="Path 48135" d="M2.146,18.463a.737.737,0,0,1,.47-.872.732.732,0,0,1,.934.45.493.493,0,0,1,.019.064.734.734,0,0,1-1.4.421c-.006-.02-.014-.042-.019-.062" transform="translate(1.173 9.691)" fill="#00aebc"/>
      <path id="Path_48136" data-name="Path 48136" d="M3.032,20.536a.736.736,0,0,1,.312-.941.732.732,0,0,1,1,.281.418.418,0,0,1,.029.059.734.734,0,0,1-1.31.658c-.011-.019-.02-.037-.029-.057" transform="translate(1.639 10.77)" fill="#00aebc"/>
      <path id="Path_48137" data-name="Path 48137" d="M4.265,22.424a.738.738,0,0,1,.143-.981.736.736,0,0,1,1.034.1c.014.017.026.034.039.053a.734.734,0,0,1-1.177.877c-.014-.017-.026-.036-.039-.053" transform="translate(2.286 11.751)" fill="#00adbb"/>
      <path id="Path_48138" data-name="Path 48138" d="M5.806,24.068a.738.738,0,0,1-.029-.99A.735.735,0,0,1,6.812,23c.017.014.033.029.048.045a.734.734,0,0,1-1.006,1.068.658.658,0,0,1-.048-.045" transform="translate(3.093 12.604)" fill="#00adbb"/>
      <path id="Path_48139" data-name="Path 48139" d="M7.61,25.42a.737.737,0,0,1-.2-.97.733.733,0,0,1,1.006-.256c.019.011.037.023.054.036a.734.734,0,0,1-.806,1.226c-.019-.011-.037-.023-.054-.036" transform="translate(4.036 13.304)" fill="#00adbb"/>
      <path id="Path_48140" data-name="Path 48140" d="M9.622,26.439a.738.738,0,0,1-.366-.921.734.734,0,0,1,.947-.427c.02.008.04.016.059.025a.734.734,0,0,1-.579,1.347.545.545,0,0,1-.061-.025" transform="translate(5.086 13.83)" fill="#00adbb"/>
      <path id="Path_48141" data-name="Path 48141" d="M11.78,27.092a.739.739,0,0,1-.522-.843.736.736,0,0,1,.858-.585c.022,0,.043.009.064.016a.734.734,0,0,1-.337,1.428c-.022,0-.043-.009-.064-.016" transform="translate(6.211 14.166)" fill="#00adbb"/>
      <path id="Path_48142" data-name="Path 48142" d="M14.018,27.36a.738.738,0,0,1-.66-.74A.737.737,0,0,1,14.1,25.9c.022,0,.043,0,.065,0a.734.734,0,0,1-.084,1.464c-.022,0-.043,0-.065,0" transform="translate(7.378 14.301)" fill="#00adbb"/>
      <path id="Path_48143" data-name="Path 48143" d="M28.214,9.958a.825.825,0,0,1-.526.976.822.822,0,0,1-1.046-.5.592.592,0,0,1-.02-.07.821.821,0,0,1,1.571-.472.6.6,0,0,1,.022.07" transform="translate(14.689 5.156)" fill="#d3f0f2"/>
      <path id="Path_48144" data-name="Path 48144" d="M27.224,7.639a.822.822,0,0,1-.973,1.127.815.815,0,0,1-.494-.39c-.011-.022-.023-.043-.033-.065a.822.822,0,0,1,1.467-.737.639.639,0,0,1,.033.065" transform="translate(14.167 3.95)" fill="#d3f0f2"/>
      <path id="Path_48145" data-name="Path 48145" d="M25.844,5.527a.822.822,0,0,1-.762,1.279.814.814,0,0,1-.554-.3c-.016-.019-.029-.039-.043-.059A.822.822,0,0,1,25.8,5.468c.016.02.029.039.043.059" transform="translate(13.443 2.853)" fill="#d3f0f2"/>
      <path id="Path_48146" data-name="Path 48146" d="M24.119,3.688a.822.822,0,0,1-1.125,1.2c-.019-.017-.037-.033-.053-.05a.822.822,0,0,1,1.125-1.2c.019.016.036.033.053.05" transform="translate(12.54 1.898)" fill="#d3f0f2"/>
      <path id="Path_48147" data-name="Path 48147" d="M22.1,2.174a.824.824,0,0,1,.225,1.087.822.822,0,0,1-1.125.286c-.022-.012-.042-.026-.062-.04a.822.822,0,0,1,.9-1.372c.022.012.04.026.061.04" transform="translate(11.486 1.114)" fill="#bae8eb"/>
      <path id="Path_48148" data-name="Path 48148" d="M19.85,1.036a.825.825,0,0,1,.41,1.031.819.819,0,0,1-1.059.477.5.5,0,0,1-.067-.028.821.821,0,0,1,.649-1.507.5.5,0,0,1,.067.028" transform="translate(10.311 0.526)" fill="#bae8eb"/>
      <path id="Path_48149" data-name="Path 48149" d="M17.436.305a.826.826,0,0,1,.582.944.82.82,0,0,1-.959.654.532.532,0,0,1-.071-.017.821.821,0,0,1,.377-1.6c.025,0,.048.011.071.017" transform="translate(9.052 0.15)" fill="#bae8eb"/>
      <path id="Path_48150" data-name="Path 48150" d="M14.932,0a.826.826,0,0,1,.737.827.822.822,0,0,1-.832.812.576.576,0,0,1-.073,0,.815.815,0,0,1-.737-.827A.824.824,0,0,1,14.859,0c.025,0,.05,0,.073,0" transform="translate(7.747 -0.001)" fill="#bae8eb"/>
      <path id="Path_48151" data-name="Path 48151" d="M12.413.143a.821.821,0,0,1,.192,1.63.626.626,0,0,1-.073.009A.821.821,0,0,1,12.34.152a.626.626,0,0,1,.073-.009" transform="translate(6.435 0.077)" fill="#84d8dd"/>
      <path id="Path_48152" data-name="Path 48152" d="M9.958.717a.825.825,0,0,1,.976.526.822.822,0,0,1-.5,1.046.591.591,0,0,1-.07.02A.821.821,0,0,1,9.888.739a.6.6,0,0,1,.07-.022" transform="translate(5.157 0.381)" fill="#84d8dd"/>
      <path id="Path_48153" data-name="Path 48153" d="M7.639,1.708a.822.822,0,0,1,1.127.973.815.815,0,0,1-.39.494c-.022.011-.042.023-.065.033a.822.822,0,0,1-.737-1.467c.022-.011.043-.023.065-.033" transform="translate(3.951 0.903)" fill="#84d8dd"/>
      <path id="Path_48154" data-name="Path 48154" d="M5.527,3.087a.822.822,0,0,1,1.279.762.814.814,0,0,1-.3.554c-.019.016-.039.029-.059.043A.822.822,0,0,1,5.468,3.13l.059-.043" transform="translate(2.854 1.627)" fill="#84d8dd"/>
      <path id="Path_48155" data-name="Path 48155" d="M3.688,4.812A.821.821,0,0,1,4.882,5.937a.412.412,0,0,1-.051.053.814.814,0,0,1-1.107.034.823.823,0,0,1-.087-1.16c.016-.019.034-.036.051-.053" transform="translate(1.899 2.53)" fill="#37c8d0"/>
      <path id="Path_48156" data-name="Path 48156" d="M2.174,6.831a.828.828,0,0,1,1.087-.225.823.823,0,0,1,.286,1.127c-.012.02-.026.04-.04.061a.822.822,0,0,1-1.372-.9c.012-.02.026-.04.04-.061" transform="translate(1.115 3.585)" fill="#37c8d0"/>
      <path id="Path_48157" data-name="Path 48157" d="M1.036,9.081a.824.824,0,0,1,1.031-.41A.82.82,0,0,1,2.542,9.73a.351.351,0,0,1-.026.067.822.822,0,0,1-1.509-.649.417.417,0,0,1,.029-.067" transform="translate(0.527 4.759)" fill="#37c8d0"/>
      <path id="Path_48158" data-name="Path 48158" d="M.305,11.5a.826.826,0,0,1,.944-.582.82.82,0,0,1,.654.959.532.532,0,0,1-.017.071.821.821,0,0,1-1.6-.377c0-.025.011-.048.017-.071" transform="translate(0.151 6.019)" fill="#37c8d0"/>
      <path id="Path_48159" data-name="Path 48159" d="M0,14a.826.826,0,0,1,.827-.737.822.822,0,0,1,.812.832.576.576,0,0,1,0,.073A.822.822,0,0,1,0,14.072c0-.025,0-.05,0-.073" transform="translate(0 7.324)" fill="#37c8d0"/>
      <path id="Path_48160" data-name="Path 48160" d="M.143,16.518a.828.828,0,0,1,.688-.871.821.821,0,0,1,.942.68.562.562,0,0,1,.009.071.821.821,0,0,1-1.63.192.586.586,0,0,1-.009-.073" transform="translate(0.078 8.635)" fill="#00aebc"/>
      <path id="Path_48161" data-name="Path 48161" d="M.717,18.974A.825.825,0,0,1,1.243,18a.822.822,0,0,1,1.046.5.591.591,0,0,1,.02.07.821.821,0,0,1-1.571.472c-.008-.023-.016-.047-.022-.07" transform="translate(0.382 9.913)" fill="#00aebc"/>
      <path id="Path_48162" data-name="Path 48162" d="M1.708,21.292a.822.822,0,0,1,.973-1.127.815.815,0,0,1,.494.39q.016.03.033.065a.822.822,0,0,1-1.467.737c-.011-.022-.023-.043-.033-.065" transform="translate(0.904 11.119)" fill="#00aebc"/>
      <path id="Path_48163" data-name="Path 48163" d="M3.087,23.4a.822.822,0,0,1,.762-1.279.814.814,0,0,1,.554.3c.016.019.029.039.043.059a.822.822,0,0,1-1.316.981c-.016-.02-.029-.039-.043-.059" transform="translate(1.627 12.216)" fill="#00adbb"/>
      <path id="Path_48164" data-name="Path 48164" d="M4.812,25.244a.822.822,0,0,1,1.125-1.2c.019.017.037.033.053.05a.822.822,0,0,1-1.125,1.2c-.019-.016-.036-.033-.053-.05" transform="translate(2.53 13.171)" fill="#00adbb"/>
      <path id="Path_48165" data-name="Path 48165" d="M6.831,26.756a.828.828,0,0,1-.225-1.087.823.823,0,0,1,1.127-.286c.02.012.04.026.061.04a.822.822,0,0,1-.9,1.372c-.02-.012-.04-.026-.061-.04" transform="translate(3.585 13.955)" fill="#00adbb"/>
      <path id="Path_48166" data-name="Path 48166" d="M9.081,27.9a.825.825,0,0,1-.41-1.031.819.819,0,0,1,1.059-.477.505.505,0,0,1,.067.028.821.821,0,0,1-.649,1.507.609.609,0,0,1-.067-.028" transform="translate(4.76 14.544)" fill="#00adbb"/>
      <path id="Path_48167" data-name="Path 48167" d="M11.5,28.626a.826.826,0,0,1-.582-.944.82.82,0,0,1,.959-.654.533.533,0,0,1,.071.017.821.821,0,0,1-.377,1.6c-.025,0-.048-.011-.071-.017" transform="translate(6.019 14.919)" fill="#00adbb"/>
      <path id="Path_48168" data-name="Path 48168" d="M14,28.927a.826.826,0,0,1-.737-.827.8.8,0,0,1,.248-.577.817.817,0,0,1,.584-.234c.025,0,.048,0,.073,0a.822.822,0,0,1-.095,1.639c-.025,0-.05,0-.073,0" transform="translate(7.325 15.07)" fill="#00adbb"/>
      <path id="Path_48169" data-name="Path 48169" d="M23.826,10.353a.581.581,0,0,1-.754.734.573.573,0,0,1-.324-.3.447.447,0,0,1-.02-.048.582.582,0,0,1,1.08-.43l.019.048" transform="translate(12.534 5.502)" fill="#d3f0f2"/>
      <path id="Path_48170" data-name="Path 48170" d="M22.982,8.782a.581.581,0,0,1-.615.854.569.569,0,0,1-.373-.244.181.181,0,0,1-.026-.043.572.572,0,0,1,.179-.762.58.58,0,0,1,.807.152.188.188,0,0,1,.028.043" transform="translate(12.091 4.685)" fill="#d3f0f2"/>
      <path id="Path_48171" data-name="Path 48171" d="M21.879,7.382a.582.582,0,0,1-.045.782.569.569,0,0,1-.413.165.581.581,0,0,1-.41-.174l-.034-.039a.577.577,0,0,1,.045-.782.584.584,0,0,1,.823.009c.012.012.023.026.034.039" transform="translate(11.513 3.959)" fill="#d3f0f2"/>
      <path id="Path_48172" data-name="Path 48172" d="M20.548,6.194a.581.581,0,0,1-.72.911l-.04-.033a.576.576,0,0,1-.092-.778.583.583,0,0,1,.812-.132.4.4,0,0,1,.04.031" transform="translate(10.817 3.343)" fill="#bae8eb"/>
      <path id="Path_48173" data-name="Path 48173" d="M19.03,5.255A.58.58,0,0,1,18.925,6.3a.573.573,0,0,1-.444-.025l-.047-.023a.577.577,0,0,1-.225-.751.583.583,0,0,1,.776-.272.418.418,0,0,1,.045.025" transform="translate(10.024 2.856)" fill="#bae8eb"/>
      <path id="Path_48174" data-name="Path 48174" d="M17.373,4.593a.581.581,0,0,1-.365,1.1l-.048-.017a.58.58,0,0,1,.363-1.1.464.464,0,0,1,.05.016" transform="translate(9.159 2.515)" fill="#bae8eb"/>
      <path id="Path_48175" data-name="Path 48175" d="M15.625,4.229a.582.582,0,0,1,.469.627.575.575,0,0,1-.21.393.589.589,0,0,1-.427.129l-.05-.008a.581.581,0,0,1,.166-1.149c.017,0,.034,0,.051.008" transform="translate(8.248 2.329)" fill="#bae8eb"/>
      <path id="Path_48176" data-name="Path 48176" d="M13.84,4.173a.583.583,0,0,1,.571.537.579.579,0,0,1-.536.622c-.017,0-.034,0-.051,0a.577.577,0,0,1-.573-.537.584.584,0,0,1,.537-.622c.017,0,.034,0,.051,0" transform="translate(7.318 2.304)" fill="#84d8dd"/>
      <path id="Path_48177" data-name="Path 48177" d="M12.073,4.428a.585.585,0,0,1,.657.43.573.573,0,0,1-.064.439.581.581,0,0,1-.357.267.47.47,0,0,1-.05.009.58.58,0,0,1-.238-1.135c.017,0,.034-.008.051-.011" transform="translate(6.398 2.44)" fill="#84d8dd"/>
      <path id="Path_48178" data-name="Path 48178" d="M10.377,4.984a.587.587,0,0,1,.722.309.58.58,0,0,1-.292.768.257.257,0,0,1-.048.019A.581.581,0,0,1,10.329,5l.048-.019" transform="translate(5.516 2.735)" fill="#84d8dd"/>
      <path id="Path_48179" data-name="Path 48179" d="M8.8,5.826a.584.584,0,0,1,.764.18.568.568,0,0,1,.092.435.575.575,0,0,1-.244.371c-.014.011-.029.019-.043.028a.581.581,0,0,1-.612-.986A.259.259,0,0,1,8.8,5.826" transform="translate(4.697 3.177)" fill="#84d8dd"/>
      <path id="Path_48180" data-name="Path 48180" d="M7.4,6.928a.584.584,0,0,1,.784.045.579.579,0,0,1-.011.82.372.372,0,0,1-.037.034.581.581,0,0,1-.775-.865c.012-.012.026-.023.039-.034" transform="translate(3.968 3.754)" fill="#37c8d0"/>
      <path id="Path_48181" data-name="Path 48181" d="M6.209,8.257a.586.586,0,0,1,.779-.092.568.568,0,0,1,.234.377.576.576,0,0,1-.1.433l-.033.04A.581.581,0,0,1,6.177,8.3l.033-.04" transform="translate(3.351 4.449)" fill="#37c8d0"/>
      <path id="Path_48182" data-name="Path 48182" d="M5.268,9.771a.583.583,0,0,1,.751-.225.58.58,0,0,1,.272.775c-.006.016-.016.029-.023.045a.582.582,0,0,1-1.025-.55.255.255,0,0,1,.025-.045" transform="translate(2.864 5.24)" fill="#37c8d0"/>
      <path id="Path_48183" data-name="Path 48183" d="M4.6,11.427a.587.587,0,0,1,.7-.352.581.581,0,0,1,.4.716.437.437,0,0,1-.016.048.581.581,0,0,1-1.1-.362.465.465,0,0,1,.016-.05" transform="translate(2.522 6.104)" fill="#37c8d0"/>
      <path id="Path_48184" data-name="Path 48184" d="M4.239,13.171a.585.585,0,0,1,.629-.469.578.578,0,0,1,.393.21.572.572,0,0,1,.129.425c0,.017,0,.034-.008.051a.582.582,0,0,1-1.15-.166c0-.017,0-.034.008-.051" transform="translate(2.335 7.013)" fill="#37c8d0"/>
      <path id="Path_48185" data-name="Path 48185" d="M4.182,14.953a.585.585,0,0,1,.539-.571.577.577,0,0,1,.422.14.569.569,0,0,1,.2.4.283.283,0,0,1,0,.051A.581.581,0,0,1,4.184,15c0-.017,0-.034,0-.051" transform="translate(2.31 7.941)" fill="#00adbb"/>
      <path id="Path_48186" data-name="Path 48186" d="M4.437,16.717a.584.584,0,0,1,.43-.655.583.583,0,0,1,.708.419l.011.05a.582.582,0,0,1-1.138.236.467.467,0,0,1-.011-.05" transform="translate(2.446 8.86)" fill="#00aebc"/>
      <path id="Path_48187" data-name="Path 48187" d="M4.994,18.41a.581.581,0,0,1,.754-.734.573.573,0,0,1,.324.3.447.447,0,0,1,.02.048.582.582,0,0,1-1.08.43l-.019-.048" transform="translate(2.74 9.741)" fill="#00aebc"/>
      <path id="Path_48188" data-name="Path 48188" d="M5.837,19.98a.583.583,0,0,1,.18-.762.581.581,0,0,1,.809.152.4.4,0,0,1,.026.043.574.574,0,0,1-.18.762.581.581,0,0,1-.807-.152.259.259,0,0,1-.028-.043" transform="translate(3.183 10.557)" fill="#00aebc"/>
      <path id="Path_48189" data-name="Path 48189" d="M6.94,21.38a.582.582,0,0,1,.045-.782.569.569,0,0,1,.413-.165.581.581,0,0,1,.41.174l.034.039a.577.577,0,0,1-.045.782.584.584,0,0,1-.823-.009c-.012-.012-.023-.026-.034-.039" transform="translate(3.761 11.284)" fill="#00adbb"/>
      <path id="Path_48190" data-name="Path 48190" d="M8.271,22.568a.581.581,0,0,1-.092-.778.571.571,0,0,1,.377-.234.578.578,0,0,1,.435.1l.04.033a.576.576,0,0,1,.092.778.583.583,0,0,1-.812.132.4.4,0,0,1-.04-.031" transform="translate(4.457 11.9)" fill="#00adbb"/>
      <path id="Path_48191" data-name="Path 48191" d="M9.789,23.507a.58.58,0,0,1,.106-1.046.573.573,0,0,1,.444.025l.047.023a.582.582,0,0,1-.551,1.023.419.419,0,0,1-.045-.025" transform="translate(5.25 12.386)" fill="#00adbb"/>
      <path id="Path_48192" data-name="Path 48192" d="M11.446,24.169a.582.582,0,0,1-.352-.7.568.568,0,0,1,.275-.349.578.578,0,0,1,.442-.053l.048.017a.574.574,0,0,1,.354.7.582.582,0,0,1-.717.4.464.464,0,0,1-.05-.016" transform="translate(6.115 12.727)" fill="#00adbb"/>
      <path id="Path_48193" data-name="Path 48193" d="M13.194,24.532a.582.582,0,0,1-.469-.629.569.569,0,0,1,.21-.391.579.579,0,0,1,.427-.127.482.482,0,0,1,.05.006.581.581,0,0,1-.166,1.149c-.017,0-.034,0-.051-.008" transform="translate(7.026 12.913)" fill="#00adbb"/>
      <path id="Path_48194" data-name="Path 48194" d="M23.826,10.347a.582.582,0,0,1-.754.736.576.576,0,0,1-.324-.306c-.008-.016-.014-.031-.02-.047a.582.582,0,0,1,1.08-.432l.019.048" transform="translate(12.534 5.498)" fill="#d3f0f2"/>
      <path id="Path_48195" data-name="Path 48195" d="M22.982,8.773a.584.584,0,0,1-.18.764.581.581,0,0,1-.809-.152l-.026-.043a.581.581,0,0,1,.987-.612.258.258,0,0,1,.028.043" transform="translate(12.091 4.68)" fill="#d3f0f2"/>
      <path id="Path_48196" data-name="Path 48196" d="M21.878,7.369a.584.584,0,0,1-.045.784.577.577,0,0,1-.413.166.589.589,0,0,1-.41-.175L20.976,8.1a.582.582,0,0,1,.868-.775c.012.012.023.026.034.039" transform="translate(11.512 3.951)" fill="#d3f0f2"/>
      <path id="Path_48197" data-name="Path 48197" d="M20.547,6.179a.583.583,0,0,1,.092.779.568.568,0,0,1-.377.234.578.578,0,0,1-.435-.1l-.04-.033a.582.582,0,0,1,.72-.913l.04.033" transform="translate(10.816 3.334)" fill="#bae8eb"/>
      <path id="Path_48198" data-name="Path 48198" d="M19.029,5.238a.582.582,0,0,1-.55,1.025l-.047-.025a.582.582,0,0,1,.551-1.025.418.418,0,0,1,.045.025" transform="translate(10.024 2.847)" fill="#bae8eb"/>
      <path id="Path_48199" data-name="Path 48199" d="M17.37,4.575a.585.585,0,0,1,.355.7.585.585,0,0,1-.717.4.4.4,0,0,1-.051-.016.582.582,0,0,1,.365-1.1c.016,0,.033.009.048.016" transform="translate(9.158 2.506)" fill="#bae8eb"/>
      <path id="Path_48200" data-name="Path 48200" d="M15.623,4.21a.588.588,0,0,1,.472.629.582.582,0,0,1-.213.393.572.572,0,0,1-.425.129.447.447,0,0,1-.051-.008.582.582,0,0,1,.166-1.15c.017,0,.034,0,.051.008" transform="translate(8.247 2.318)" fill="#bae8eb"/>
      <path id="Path_48201" data-name="Path 48201" d="M13.839,4.154a.584.584,0,0,1,.571.539.579.579,0,0,1-.536.622.283.283,0,0,1-.051,0,.577.577,0,0,1-.573-.537.584.584,0,0,1,.537-.624c.017,0,.034,0,.051,0" transform="translate(7.317 2.293)" fill="#84d8dd"/>
      <path id="Path_48202" data-name="Path 48202" d="M12.071,4.409a.585.585,0,0,1,.657.43.582.582,0,0,1-.421.708.466.466,0,0,1-.05.011A.582.582,0,0,1,12.02,4.42c.017,0,.034-.008.051-.011" transform="translate(6.397 2.43)" fill="#84d8dd"/>
      <path id="Path_48203" data-name="Path 48203" d="M10.375,4.966a.582.582,0,0,1,.736.754.576.576,0,0,1-.306.324c-.016.008-.031.014-.047.02a.582.582,0,0,1-.432-1.08l.048-.019" transform="translate(5.515 2.724)" fill="#84d8dd"/>
      <path id="Path_48204" data-name="Path 48204" d="M8.8,5.809a.584.584,0,0,1,.764.18.572.572,0,0,1,.092.436.582.582,0,0,1-.244.373l-.043.026a.581.581,0,0,1-.612-.987A.259.259,0,0,1,8.8,5.809" transform="translate(4.696 3.167)" fill="#84d8dd"/>
      <path id="Path_48205" data-name="Path 48205" d="M7.4,6.913a.584.584,0,0,1,.784.045.569.569,0,0,1,.165.413.581.581,0,0,1-.174.41l-.039.034a.582.582,0,0,1-.775-.868c.012-.012.026-.023.039-.034" transform="translate(3.968 3.746)" fill="#37c8d0"/>
      <path id="Path_48206" data-name="Path 48206" d="M6.207,8.244a.583.583,0,0,1,.779-.092.571.571,0,0,1,.234.377.578.578,0,0,1-.1.435L7.087,9a.582.582,0,0,1-.913-.72l.033-.04" transform="translate(3.35 4.442)" fill="#37c8d0"/>
      <path id="Path_48207" data-name="Path 48207" d="M5.267,9.762a.582.582,0,0,1,1.049.106.58.58,0,0,1-.025.444l-.025.047a.582.582,0,0,1-1.025-.551.418.418,0,0,1,.025-.045" transform="translate(2.864 5.234)" fill="#37c8d0"/>
      <path id="Path_48208" data-name="Path 48208" d="M4.6,11.42a.586.586,0,0,1,.7-.354.583.583,0,0,1,.4.717.464.464,0,0,1-.016.05.582.582,0,0,1-1.1-.363.465.465,0,0,1,.016-.05" transform="translate(2.522 6.099)" fill="#37c8d0"/>
      <path id="Path_48209" data-name="Path 48209" d="M4.239,13.167a.586.586,0,0,1,.629-.47.583.583,0,0,1,.522.636.447.447,0,0,1-.008.051.582.582,0,0,1-1.15-.166c0-.017,0-.034.008-.051" transform="translate(2.335 7.01)" fill="#37c8d0"/>
      <path id="Path_48210" data-name="Path 48210" d="M4.182,14.952a.584.584,0,0,1,.539-.571.579.579,0,0,1,.622.536.283.283,0,0,1,0,.051.577.577,0,0,1-.537.573A.584.584,0,0,1,4.184,15c0-.017,0-.034,0-.051" transform="translate(2.31 7.941)" fill="#00adbb"/>
      <path id="Path_48211" data-name="Path 48211" d="M4.437,16.72a.585.585,0,0,1,.43-.657.582.582,0,0,1,.708.421.467.467,0,0,1,.011.05.582.582,0,0,1-1.138.238c0-.017-.008-.034-.011-.051" transform="translate(2.446 8.861)" fill="#00aebc"/>
      <path id="Path_48212" data-name="Path 48212" d="M4.995,18.416a.582.582,0,0,1,.754-.736.576.576,0,0,1,.324.306.447.447,0,0,1,.02.048.582.582,0,0,1-1.08.43l-.019-.048" transform="translate(2.741 9.743)" fill="#00aebc"/>
      <path id="Path_48213" data-name="Path 48213" d="M5.838,19.99a.583.583,0,0,1,.18-.764.567.567,0,0,1,.435-.092.583.583,0,0,1,.374.244l.025.043a.581.581,0,0,1-.986.612.258.258,0,0,1-.028-.043" transform="translate(3.184 10.561)" fill="#00aebc"/>
      <path id="Path_48214" data-name="Path 48214" d="M6.941,21.392a.584.584,0,0,1,.045-.784.569.569,0,0,1,.413-.165.581.581,0,0,1,.41.174c.011.014.023.026.034.039a.582.582,0,0,1-.868.775c-.012-.012-.023-.026-.034-.039" transform="translate(3.762 11.29)" fill="#00adbb"/>
      <path id="Path_48215" data-name="Path 48215" d="M8.272,22.584a.583.583,0,0,1-.092-.779.568.568,0,0,1,.377-.234.578.578,0,0,1,.435.1l.04.033a.581.581,0,0,1-.72.911.4.4,0,0,1-.04-.031" transform="translate(4.458 11.908)" fill="#00adbb"/>
      <path id="Path_48216" data-name="Path 48216" d="M9.79,23.524A.582.582,0,0,1,9.9,22.475a.58.58,0,0,1,.444.025l.047.025a.582.582,0,0,1-.551,1.025.419.419,0,0,1-.045-.025" transform="translate(5.251 12.394)" fill="#00adbb"/>
      <path id="Path_48217" data-name="Path 48217" d="M11.449,24.187a.585.585,0,0,1-.354-.7.583.583,0,0,1,.717-.4.464.464,0,0,1,.05.016.582.582,0,0,1-.363,1.1.465.465,0,0,1-.05-.016" transform="translate(6.116 12.736)" fill="#00adbb"/>
      <path id="Path_48218" data-name="Path 48218" d="M13.2,24.552a.586.586,0,0,1-.47-.629.583.583,0,0,1,.636-.522.508.508,0,0,1,.051.008.582.582,0,0,1-.166,1.15c-.017,0-.034,0-.051-.008" transform="translate(7.027 12.923)" fill="#00adbb"/>
      <path id="Path_48219" data-name="Path 48219" d="M25.028,9.868a.657.657,0,0,1-.349.812.654.654,0,0,1-.865-.328.566.566,0,0,1-.022-.054.654.654,0,0,1,1.214-.484c.008.019.016.036.022.054" transform="translate(13.12 5.207)" fill="#d3f0f2"/>
      <path id="Path_48220" data-name="Path 48220" d="M24.079,8.1a.658.658,0,0,1-.2.86.653.653,0,0,1-.908-.172.535.535,0,0,1-.031-.05.654.654,0,0,1,1.111-.688c.011.017.022.033.031.05" transform="translate(12.622 4.286)" fill="#d3f0f2"/>
      <path id="Path_48221" data-name="Path 48221" d="M22.837,6.518a.654.654,0,0,1-.515,1.068.649.649,0,0,1-.459-.2.517.517,0,0,1-.039-.043.654.654,0,0,1,.975-.871.517.517,0,0,1,.039.043" transform="translate(11.971 3.467)" fill="#d3f0f2"/>
      <path id="Path_48222" data-name="Path 48222" d="M21.339,5.18a.658.658,0,0,1,.1.877.653.653,0,0,1-.913.149.368.368,0,0,1-.047-.036.654.654,0,0,1,.81-1.026.505.505,0,0,1,.045.036" transform="translate(11.188 2.772)" fill="#bae8eb"/>
      <path id="Path_48223" data-name="Path 48223" d="M19.632,4.122a.655.655,0,0,1-.619,1.152c-.017-.009-.034-.017-.051-.028a.651.651,0,0,1-.255-.846.658.658,0,0,1,.874-.306l.051.028" transform="translate(10.296 2.225)" fill="#bae8eb"/>
      <path id="Path_48224" data-name="Path 48224" d="M17.766,3.375a.659.659,0,0,1,.4.789.654.654,0,0,1-.807.453A.444.444,0,0,1,17.3,4.6a.654.654,0,0,1,.408-1.242l.054.019" transform="translate(9.323 1.84)" fill="#bae8eb"/>
      <path id="Path_48225" data-name="Path 48225" d="M15.8,2.964a.657.657,0,0,1,.528.708.655.655,0,0,1-.716.587c-.019,0-.039,0-.057-.009a.654.654,0,0,1,.188-1.293l.057.008" transform="translate(8.298 1.63)" fill="#bae8eb"/>
      <path id="Path_48226" data-name="Path 48226" d="M13.793,2.9a.658.658,0,0,1,.643.605.646.646,0,0,1-.155.475.653.653,0,0,1-.447.227c-.02,0-.039,0-.059,0A.654.654,0,0,1,13.736,2.9c.019,0,.039,0,.057,0" transform="translate(7.252 1.601)" fill="#84d8dd"/>
      <path id="Path_48227" data-name="Path 48227" d="M11.8,3.188a.658.658,0,0,1,.739.484.656.656,0,0,1-.472.8l-.057.011A.654.654,0,0,1,11.747,3.2l.057-.012" transform="translate(6.216 1.755)" fill="#84d8dd"/>
      <path id="Path_48228" data-name="Path 48228" d="M9.9,3.815a.658.658,0,0,1,.812.349.654.654,0,0,1-.328.865.566.566,0,0,1-.054.022.654.654,0,0,1-.484-1.214c.019-.008.036-.016.054-.022" transform="translate(5.223 2.086)" fill="#84d8dd"/>
      <path id="Path_48229" data-name="Path 48229" d="M8.126,4.763a.658.658,0,0,1,.86.2.653.653,0,0,1-.172.908.535.535,0,0,1-.05.031.654.654,0,0,1-.688-1.111c.017-.011.033-.022.05-.031" transform="translate(4.303 2.585)" fill="#84d8dd"/>
      <path id="Path_48230" data-name="Path 48230" d="M6.548,6.006a.654.654,0,0,1,1.068.515.649.649,0,0,1-.2.459.517.517,0,0,1-.043.039A.654.654,0,0,1,6.5,6.045a.517.517,0,0,1,.043-.039" transform="translate(3.483 3.236)" fill="#37c8d0"/>
      <path id="Path_48231" data-name="Path 48231" d="M5.209,7.5a.658.658,0,0,1,.877-.1.653.653,0,0,1,.149.913.368.368,0,0,1-.036.047.654.654,0,0,1-1.026-.81A.505.505,0,0,1,5.209,7.5" transform="translate(2.789 4.019)" fill="#37c8d0"/>
      <path id="Path_48232" data-name="Path 48232" d="M4.15,9.21A.658.658,0,0,1,5,8.956.655.655,0,0,1,5.3,9.83c-.009.017-.017.034-.028.051a.655.655,0,0,1-1.152-.619L4.15,9.21" transform="translate(2.241 4.91)" fill="#37c8d0"/>
      <path id="Path_48233" data-name="Path 48233" d="M3.4,11.075a.658.658,0,0,1,.789-.4.646.646,0,0,1,.394.309.657.657,0,0,1,.059.5.558.558,0,0,1-.019.054.654.654,0,0,1-1.242-.408l.019-.056" transform="translate(1.856 5.883)" fill="#37c8d0"/>
      <path id="Path_48234" data-name="Path 48234" d="M2.993,13.042a.658.658,0,0,1,.708-.528.655.655,0,0,1,.587.716c0,.019,0,.039-.009.057A.654.654,0,0,1,2.985,13.1c0-.019,0-.039.008-.057" transform="translate(1.647 6.909)" fill="#37c8d0"/>
      <path id="Path_48235" data-name="Path 48235" d="M2.93,15.049a.658.658,0,0,1,.6-.643.654.654,0,0,1,.7.6c0,.02,0,.039,0,.059a.654.654,0,0,1-1.307.039c0-.019,0-.039,0-.057" transform="translate(1.618 7.955)" fill="#37c8d0"/>
      <path id="Path_48236" data-name="Path 48236" d="M3.216,17.038A.658.658,0,0,1,3.7,16.3a.656.656,0,0,1,.8.473c0,.019.008.037.011.056a.654.654,0,0,1-1.279.267c0-.019-.009-.039-.012-.057" transform="translate(1.772 8.99)" fill="#00aebc"/>
      <path id="Path_48237" data-name="Path 48237" d="M3.843,18.947a.658.658,0,0,1,.349-.812.654.654,0,0,1,.865.328.566.566,0,0,1,.022.054A.654.654,0,0,1,3.864,19c-.008-.019-.016-.036-.022-.054" transform="translate(2.103 9.983)" fill="#00aebc"/>
      <path id="Path_48238" data-name="Path 48238" d="M4.792,20.717a.658.658,0,0,1,.2-.86.653.653,0,0,1,.908.172.536.536,0,0,1,.031.05.654.654,0,0,1-1.111.688c-.011-.017-.022-.033-.031-.05" transform="translate(2.601 10.903)" fill="#00aebc"/>
      <path id="Path_48239" data-name="Path 48239" d="M6.034,22.295a.654.654,0,0,1,.515-1.068.649.649,0,0,1,.459.2.517.517,0,0,1,.039.043.654.654,0,0,1-.975.871.517.517,0,0,1-.039-.043" transform="translate(3.252 11.723)" fill="#00adbb"/>
      <path id="Path_48240" data-name="Path 48240" d="M7.531,23.634a.658.658,0,0,1-.1-.877.655.655,0,0,1,.913-.151.544.544,0,0,1,.047.037.654.654,0,0,1-.81,1.026.505.505,0,0,1-.045-.036" transform="translate(4.035 12.417)" fill="#00adbb"/>
      <path id="Path_48241" data-name="Path 48241" d="M9.238,24.693a.658.658,0,0,1-.255-.846.655.655,0,0,1,.874-.306.417.417,0,0,1,.051.028.655.655,0,0,1-.619,1.152l-.051-.028" transform="translate(4.926 12.965)" fill="#00adbb"/>
      <path id="Path_48242" data-name="Path 48242" d="M11.1,25.44a.658.658,0,0,1-.4-.789.646.646,0,0,1,.309-.394.657.657,0,0,1,.5-.059.32.32,0,0,1,.054.019.654.654,0,0,1-.408,1.242L11.1,25.44" transform="translate(5.9 13.35)" fill="#00adbb"/>
      <path id="Path_48243" data-name="Path 48243" d="M13.07,25.85a.657.657,0,0,1-.528-.708.655.655,0,0,1,.716-.587l.057.009a.654.654,0,0,1-.188,1.293l-.057-.008" transform="translate(6.925 13.559)" fill="#00adbb"/>
      <path id="Path_48244" data-name="Path 48244" d="M25.028,9.868a.657.657,0,0,1-.349.812.654.654,0,0,1-.865-.328.566.566,0,0,1-.022-.054.654.654,0,0,1,1.214-.484c.008.019.016.036.022.054" transform="translate(13.12 5.207)" fill="#d3f0f2"/>
      <path id="Path_48245" data-name="Path 48245" d="M24.079,8.1a.658.658,0,0,1-.2.86.653.653,0,0,1-.908-.172.535.535,0,0,1-.031-.05.654.654,0,0,1,1.111-.688c.011.017.022.033.031.05" transform="translate(12.622 4.286)" fill="#d3f0f2"/>
      <path id="Path_48246" data-name="Path 48246" d="M22.837,6.518a.654.654,0,0,1-.515,1.068.649.649,0,0,1-.459-.2.517.517,0,0,1-.039-.043.654.654,0,0,1,.975-.871.517.517,0,0,1,.039.043" transform="translate(11.971 3.467)" fill="#d3f0f2"/>
      <path id="Path_48247" data-name="Path 48247" d="M21.339,5.18a.658.658,0,0,1,.1.877.653.653,0,0,1-.913.149.368.368,0,0,1-.047-.036.654.654,0,0,1,.81-1.026.505.505,0,0,1,.045.036" transform="translate(11.188 2.772)" fill="#bae8eb"/>
      <path id="Path_48248" data-name="Path 48248" d="M19.632,4.122a.655.655,0,0,1-.619,1.152c-.017-.009-.034-.017-.051-.028a.651.651,0,0,1-.255-.846.658.658,0,0,1,.874-.306l.051.028" transform="translate(10.296 2.225)" fill="#bae8eb"/>
      <path id="Path_48249" data-name="Path 48249" d="M17.766,3.375a.659.659,0,0,1,.4.789.654.654,0,0,1-.807.453A.444.444,0,0,1,17.3,4.6a.654.654,0,0,1,.408-1.242l.054.019" transform="translate(9.323 1.84)" fill="#bae8eb"/>
      <path id="Path_48250" data-name="Path 48250" d="M15.8,2.964a.657.657,0,0,1,.528.708.655.655,0,0,1-.716.587c-.019,0-.039,0-.057-.009a.654.654,0,0,1,.188-1.293l.057.008" transform="translate(8.298 1.63)" fill="#bae8eb"/>
      <path id="Path_48251" data-name="Path 48251" d="M13.793,2.9a.658.658,0,0,1,.643.605.646.646,0,0,1-.155.475.653.653,0,0,1-.447.227c-.02,0-.039,0-.059,0A.654.654,0,0,1,13.736,2.9c.019,0,.039,0,.057,0" transform="translate(7.252 1.601)" fill="#84d8dd"/>
      <path id="Path_48252" data-name="Path 48252" d="M11.8,3.188a.658.658,0,0,1,.739.484.656.656,0,0,1-.472.8l-.057.011A.654.654,0,0,1,11.747,3.2l.057-.012" transform="translate(6.216 1.755)" fill="#84d8dd"/>
      <path id="Path_48253" data-name="Path 48253" d="M9.9,3.815a.658.658,0,0,1,.812.349.654.654,0,0,1-.328.865.566.566,0,0,1-.054.022.654.654,0,0,1-.484-1.214c.019-.008.036-.016.054-.022" transform="translate(5.223 2.086)" fill="#84d8dd"/>
      <path id="Path_48254" data-name="Path 48254" d="M8.126,4.763a.658.658,0,0,1,.86.2.653.653,0,0,1-.172.908.535.535,0,0,1-.05.031.654.654,0,0,1-.688-1.111c.017-.011.033-.022.05-.031" transform="translate(4.303 2.585)" fill="#84d8dd"/>
      <path id="Path_48255" data-name="Path 48255" d="M6.548,6.006a.654.654,0,0,1,1.068.515.649.649,0,0,1-.2.459.517.517,0,0,1-.043.039A.654.654,0,0,1,6.5,6.045a.517.517,0,0,1,.043-.039" transform="translate(3.483 3.236)" fill="#37c8d0"/>
      <path id="Path_48256" data-name="Path 48256" d="M5.209,7.5a.658.658,0,0,1,.877-.1.653.653,0,0,1,.149.913.368.368,0,0,1-.036.047.654.654,0,0,1-1.026-.81A.505.505,0,0,1,5.209,7.5" transform="translate(2.789 4.019)" fill="#37c8d0"/>
      <path id="Path_48257" data-name="Path 48257" d="M4.15,9.21A.658.658,0,0,1,5,8.956.655.655,0,0,1,5.3,9.83c-.009.017-.017.034-.028.051a.655.655,0,0,1-1.152-.619L4.15,9.21" transform="translate(2.241 4.91)" fill="#37c8d0"/>
      <path id="Path_48258" data-name="Path 48258" d="M3.4,11.075a.658.658,0,0,1,.789-.4.646.646,0,0,1,.394.309.657.657,0,0,1,.059.5.558.558,0,0,1-.019.054.654.654,0,0,1-1.242-.408l.019-.056" transform="translate(1.856 5.883)" fill="#37c8d0"/>
      <path id="Path_48259" data-name="Path 48259" d="M2.993,13.042a.658.658,0,0,1,.708-.528.655.655,0,0,1,.587.716c0,.019,0,.039-.009.057A.654.654,0,0,1,2.985,13.1c0-.019,0-.039.008-.057" transform="translate(1.647 6.909)" fill="#37c8d0"/>
      <path id="Path_48260" data-name="Path 48260" d="M2.93,15.049a.658.658,0,0,1,.6-.643.654.654,0,0,1,.7.6c0,.02,0,.039,0,.059a.654.654,0,0,1-1.307.039c0-.019,0-.039,0-.057" transform="translate(1.618 7.955)" fill="#00adbb"/>
      <path id="Path_48261" data-name="Path 48261" d="M3.216,17.038A.658.658,0,0,1,3.7,16.3a.656.656,0,0,1,.8.473c0,.019.008.037.011.056a.654.654,0,0,1-1.279.267c0-.019-.009-.039-.012-.057" transform="translate(1.772 8.99)" fill="#00aebc"/>
      <path id="Path_48262" data-name="Path 48262" d="M3.843,18.947a.658.658,0,0,1,.349-.812.654.654,0,0,1,.865.328.566.566,0,0,1,.022.054A.654.654,0,0,1,3.864,19c-.008-.019-.016-.036-.022-.054" transform="translate(2.103 9.983)" fill="#00aebc"/>
      <path id="Path_48263" data-name="Path 48263" d="M4.792,20.717a.658.658,0,0,1,.2-.86.653.653,0,0,1,.908.172.536.536,0,0,1,.031.05.654.654,0,0,1-1.111.688c-.011-.017-.022-.033-.031-.05" transform="translate(2.601 10.903)" fill="#00aebc"/>
      <path id="Path_48264" data-name="Path 48264" d="M6.034,22.295a.654.654,0,0,1,.515-1.068.649.649,0,0,1,.459.2.517.517,0,0,1,.039.043.654.654,0,0,1-.975.871.517.517,0,0,1-.039-.043" transform="translate(3.252 11.723)" fill="#00adbb"/>
      <path id="Path_48265" data-name="Path 48265" d="M7.531,23.634a.658.658,0,0,1-.1-.877.655.655,0,0,1,.913-.151.544.544,0,0,1,.047.037.654.654,0,0,1-.81,1.026.505.505,0,0,1-.045-.036" transform="translate(4.035 12.417)" fill="#00adbb"/>
      <path id="Path_48266" data-name="Path 48266" d="M9.238,24.693a.658.658,0,0,1-.255-.846.655.655,0,0,1,.874-.306.417.417,0,0,1,.051.028.655.655,0,0,1-.619,1.152l-.051-.028" transform="translate(4.926 12.965)" fill="#00adbb"/>
      <path id="Path_48267" data-name="Path 48267" d="M11.1,25.44a.658.658,0,0,1-.4-.789.646.646,0,0,1,.309-.394.657.657,0,0,1,.5-.059.32.32,0,0,1,.054.019.654.654,0,0,1-.408,1.242L11.1,25.44" transform="translate(5.9 13.35)" fill="#00adbb"/>
      <path id="Path_48268" data-name="Path 48268" d="M13.07,25.85a.657.657,0,0,1-.528-.708.655.655,0,0,1,.716-.587l.057.009a.654.654,0,0,1-.188,1.293l-.057-.008" transform="translate(6.925 13.559)" fill="#00adbb"/>
      <path id="Path_48269" data-name="Path 48269" d="M26.351,9.341a.74.74,0,0,1-.391.911.735.735,0,0,1-.972-.368.485.485,0,0,1-.023-.061.734.734,0,0,1,1.361-.543c.009.02.017.04.025.061" transform="translate(13.765 4.886)" fill="#d3f0f2"/>
      <path id="Path_48270" data-name="Path 48270" d="M25.286,7.355a.734.734,0,0,1-1.248.771A.642.642,0,0,1,24,8.072.735.735,0,0,1,25.252,7.3c.012.019.023.037.034.056" transform="translate(13.205 3.854)" fill="#d3f0f2"/>
      <path id="Path_48271" data-name="Path 48271" d="M23.892,5.583a.739.739,0,0,1-.056.99.729.729,0,0,1-.522.208.721.721,0,0,1-.517-.222.64.64,0,0,1-.043-.048.734.734,0,0,1,1.094-.976.64.64,0,0,1,.043.048" transform="translate(12.475 2.934)" fill="#d3f0f2"/>
      <path id="Path_48272" data-name="Path 48272" d="M22.211,4.08a.738.738,0,0,1,.116.984.733.733,0,0,1-1.025.168.452.452,0,0,1-.051-.04A.734.734,0,0,1,22.16,4.04a.652.652,0,0,1,.051.04" transform="translate(11.596 2.154)" fill="#bae8eb"/>
      <path id="Path_48273" data-name="Path 48273" d="M20.295,2.893A.734.734,0,0,1,19.6,4.186l-.056-.031a.734.734,0,0,1,.692-1.293.5.5,0,0,1,.057.031" transform="translate(10.596 1.54)" fill="#bae8eb"/>
      <path id="Path_48274" data-name="Path 48274" d="M18.2,2.055a.738.738,0,0,1,.446.885.732.732,0,0,1-.9.509c-.022-.006-.042-.014-.062-.022a.734.734,0,0,1,.459-1.392c.022.006.042.012.062.02" transform="translate(9.504 1.108)" fill="#bae8eb"/>
      <path id="Path_48275" data-name="Path 48275" d="M16,1.595a.735.735,0,0,1,.328,1.29.727.727,0,0,1-.539.161.419.419,0,0,1-.064-.009.726.726,0,0,1-.593-.793.734.734,0,0,1,.8-.658A.471.471,0,0,1,16,1.595" transform="translate(8.353 0.873)" fill="#bae8eb"/>
      <path id="Path_48276" data-name="Path 48276" d="M13.743,1.523a.738.738,0,0,1,.722.68.733.733,0,0,1-.677.787c-.022,0-.043,0-.065,0a.735.735,0,0,1-.045-1.467c.022,0,.043,0,.065,0" transform="translate(7.179 0.84)" fill="#84d8dd"/>
      <path id="Path_48277" data-name="Path 48277" d="M11.512,1.844a.739.739,0,0,1,.829.543.734.734,0,0,1-.529.893.489.489,0,0,1-.065.014.734.734,0,0,1-.3-1.436.467.467,0,0,1,.064-.014" transform="translate(6.017 1.013)" fill="#84d8dd"/>
      <path id="Path_48278" data-name="Path 48278" d="M9.37,2.548a.74.74,0,0,1,.911.391.735.735,0,0,1-.368.972.484.484,0,0,1-.061.023A.734.734,0,0,1,9.31,2.573c.02-.009.04-.017.061-.025" transform="translate(4.903 1.384)" fill="#84d8dd"/>
      <path id="Path_48279" data-name="Path 48279" d="M7.384,3.613a.734.734,0,0,1,.771,1.248c-.017.012-.036.023-.054.034a.735.735,0,0,1-.773-1.248c.019-.012.037-.023.056-.034" transform="translate(3.87 1.944)" fill="#84d8dd"/>
      <path id="Path_48280" data-name="Path 48280" d="M5.612,5.007a.737.737,0,0,1,.989.056A.733.733,0,0,1,6.588,6.1a.639.639,0,0,1-.048.043.734.734,0,0,1-.976-1.094.64.64,0,0,1,.048-.043" transform="translate(2.95 2.674)" fill="#37c8d0"/>
      <path id="Path_48281" data-name="Path 48281" d="M4.109,6.687a.738.738,0,0,1,.984-.116A.733.733,0,0,1,5.261,7.6a.452.452,0,0,1-.04.051.734.734,0,0,1-1.152-.908c.012-.017.026-.034.04-.051" transform="translate(2.171 3.553)" fill="#37c8d0"/>
      <path id="Path_48282" data-name="Path 48282" d="M2.921,8.6A.734.734,0,0,1,4.214,9.3l-.031.057A.734.734,0,0,1,2.89,8.661c.009-.02.02-.039.031-.057" transform="translate(1.556 4.553)" fill="#37c8d0"/>
      <path id="Path_48283" data-name="Path 48283" d="M2.084,10.7a.738.738,0,0,1,.885-.446.734.734,0,0,1,.509.9.42.42,0,0,1-.022.062.734.734,0,0,1-1.392-.459c.006-.022.012-.042.02-.062" transform="translate(1.125 5.646)" fill="#37c8d0"/>
      <path id="Path_48284" data-name="Path 48284" d="M1.623,12.9a.74.74,0,0,1,.795-.593.733.733,0,0,1,.657.8.419.419,0,0,1-.009.064.726.726,0,0,1-.793.593.734.734,0,0,1-.658-.8c0-.022,0-.043.009-.065" transform="translate(0.889 6.796)" fill="#37c8d0"/>
      <path id="Path_48285" data-name="Path 48285" d="M1.552,15.157a.738.738,0,0,1,.68-.722.734.734,0,0,1,.787.677c0,.022,0,.043,0,.065a.735.735,0,0,1-1.467.045c0-.022,0-.043,0-.065" transform="translate(0.857 7.97)" fill="#00adbb"/>
      <path id="Path_48286" data-name="Path 48286" d="M1.873,17.388a.739.739,0,0,1,.543-.829.733.733,0,0,1,.893.531.421.421,0,0,1,.014.064.734.734,0,0,1-1.436.3.421.421,0,0,1-.014-.064" transform="translate(1.029 9.132)" fill="#00aebc"/>
      <path id="Path_48287" data-name="Path 48287" d="M2.576,19.529a.74.74,0,0,1,.391-.911.735.735,0,0,1,.972.368.484.484,0,0,1,.023.061A.734.734,0,0,1,2.6,19.59c-.009-.02-.017-.04-.025-.061" transform="translate(1.401 10.246)" fill="#00aebc"/>
      <path id="Path_48288" data-name="Path 48288" d="M3.642,21.516a.734.734,0,0,1,1.248-.771c.012.017.023.036.034.054a.735.735,0,0,1-1.248.773c-.012-.019-.023-.037-.034-.056" transform="translate(1.96 11.279)" fill="#00aebc"/>
      <path id="Path_48289" data-name="Path 48289" d="M5.035,23.287a.737.737,0,0,1,.056-.989.733.733,0,0,1,1.038.012.639.639,0,0,1,.043.048.734.734,0,0,1-1.094.976.64.64,0,0,1-.043-.048" transform="translate(2.69 12.199)" fill="#00adbb"/>
      <path id="Path_48290" data-name="Path 48290" d="M6.716,24.79a.738.738,0,0,1-.116-.984.733.733,0,0,1,1.025-.168.326.326,0,0,1,.051.04.734.734,0,0,1-.908,1.152c-.017-.012-.034-.026-.051-.04" transform="translate(3.569 12.978)" fill="#00adbb"/>
      <path id="Path_48291" data-name="Path 48291" d="M8.632,25.979a.734.734,0,0,1,.133-1.324.732.732,0,0,1,.56.031c.02.009.039.02.057.031A.734.734,0,0,1,8.69,26.01c-.02-.009-.039-.02-.057-.031" transform="translate(4.57 13.593)" fill="#00adbb"/>
      <path id="Path_48292" data-name="Path 48292" d="M10.725,26.816a.738.738,0,0,1-.446-.885.732.732,0,0,1,.9-.509l.062.02a.735.735,0,0,1-.459,1.394c-.022-.006-.042-.012-.062-.02" transform="translate(5.662 14.024)" fill="#00adbb"/>
      <path id="Path_48293" data-name="Path 48293" d="M12.931,27.277a.738.738,0,0,1-.593-.795.733.733,0,0,1,.8-.657.449.449,0,0,1,.064.009A.734.734,0,0,1,13,27.286a.471.471,0,0,1-.065-.009" transform="translate(6.812 14.26)" fill="#00adbb"/>
      <path id="Path_48294" data-name="Path 48294" d="M27.795,8.767a.824.824,0,0,1-.438,1.018.821.821,0,0,1-1.087-.41.526.526,0,0,1-.028-.068A.822.822,0,0,1,27.769,8.7c.009.023.019.045.026.068" transform="translate(14.468 4.537)" fill="#d3f0f2"/>
      <path id="Path_48295" data-name="Path 48295" d="M26.6,6.544a.825.825,0,0,1-.255,1.079.82.82,0,0,1-1.141-.216.659.659,0,0,1-.039-.061.822.822,0,0,1,1.4-.865c.014.02.026.04.039.062" transform="translate(13.842 3.382)" fill="#d3f0f2"/>
      <path id="Path_48296" data-name="Path 48296" d="M25.044,4.562a.821.821,0,0,1-1.225,1.093c-.017-.017-.033-.036-.048-.054A.822.822,0,0,1,25,4.508c.017.017.033.036.048.054" transform="translate(13.025 2.352)" fill="#d3f0f2"/>
      <path id="Path_48297" data-name="Path 48297" d="M23.164,2.881a.825.825,0,0,1,.13,1.1.822.822,0,0,1-1.147.189c-.019-.016-.039-.029-.056-.047a.815.815,0,0,1-.132-1.1.824.824,0,0,1,1.147-.188c.02.014.039.029.057.045" transform="translate(12.042 1.48)" fill="#bae8eb"/>
      <path id="Path_48298" data-name="Path 48298" d="M21.019,1.552a.825.825,0,0,1,.32,1.062.823.823,0,0,1-1.1.385c-.022-.011-.043-.023-.065-.036a.821.821,0,0,1,.778-1.445c.022.011.043.022.064.034" transform="translate(10.922 0.793)" fill="#bae8eb"/>
      <path id="Path_48299" data-name="Path 48299" d="M18.678.615a.821.821,0,0,1,.11,1.484.8.8,0,0,1-.624.075c-.023-.006-.047-.014-.07-.022a.822.822,0,0,1,.514-1.56l.07.023" transform="translate(9.701 0.309)" fill="#bae8eb"/>
      <path id="Path_48300" data-name="Path 48300" d="M16.209.1a.822.822,0,0,1-.236,1.625c-.023,0-.048-.006-.071-.011A.822.822,0,0,1,16.136.088c.025,0,.05.006.073.011" transform="translate(8.413 0.046)" fill="#bae8eb"/>
      <path id="Path_48301" data-name="Path 48301" d="M13.688.02A.825.825,0,0,1,14.5.781a.821.821,0,0,1-.758.88.572.572,0,0,1-.073,0,.821.821,0,0,1-.05-1.639.574.574,0,0,1,.073,0" transform="translate(7.1 0.01)" fill="#84d8dd"/>
      <path id="Path_48302" data-name="Path 48302" d="M11.191.38a.821.821,0,0,1,.334,1.607c-.023.006-.047.011-.071.016A.821.821,0,0,1,11.12.4c.023-.006.048-.011.071-.016" transform="translate(5.8 0.203)" fill="#84d8dd"/>
      <path id="Path_48303" data-name="Path 48303" d="M8.8,1.167A.824.824,0,0,1,9.814,1.6.821.821,0,0,1,9.4,2.692a.632.632,0,0,1-.068.028A.822.822,0,0,1,8.728,1.2.632.632,0,0,1,8.8,1.167" transform="translate(4.554 0.619)" fill="#84d8dd"/>
      <path id="Path_48304" data-name="Path 48304" d="M6.574,2.359a.825.825,0,0,1,1.079.255.806.806,0,0,1,.127.615.815.815,0,0,1-.345.526c-.019.014-.04.026-.059.039a.822.822,0,0,1-.865-1.4c.02-.014.04-.026.062-.039" transform="translate(3.398 1.245)" fill="#84d8dd"/>
      <path id="Path_48305" data-name="Path 48305" d="M4.592,3.918A.823.823,0,0,1,5.7,3.982a.811.811,0,0,1,.234.584.825.825,0,0,1-.247.577l-.054.048A.821.821,0,0,1,4.537,3.966a.414.414,0,0,1,.054-.048" transform="translate(2.369 2.062)" fill="#37c8d0"/>
      <path id="Path_48306" data-name="Path 48306" d="M2.91,5.8a.822.822,0,0,1,1.433.4.814.814,0,0,1-.144.613.523.523,0,0,1-.045.057A.821.821,0,0,1,2.865,5.855c.014-.02.029-.039.045-.057" transform="translate(1.497 3.045)" fill="#37c8d0"/>
      <path id="Path_48307" data-name="Path 48307" d="M1.58,7.941a.829.829,0,0,1,1.063-.32.825.825,0,0,1,.383,1.1.513.513,0,0,1-.036.064A.821.821,0,0,1,1.547,8c.011-.022.02-.043.033-.064" transform="translate(0.809 4.164)" fill="#37c8d0"/>
      <path id="Path_48308" data-name="Path 48308" d="M.644,10.283a.825.825,0,0,1,.99-.5.814.814,0,0,1,.494.388A.8.8,0,0,1,2.2,10.8c-.006.023-.014.047-.022.07a.822.822,0,0,1-1.56-.514l.023-.07" transform="translate(0.326 5.387)" fill="#37c8d0"/>
      <path id="Path_48309" data-name="Path 48309" d="M.128,12.752a.822.822,0,0,1,1.625.236c0,.023-.006.048-.011.071a.822.822,0,0,1-1.625-.234c0-.025.006-.05.011-.073" transform="translate(0.063 6.674)" fill="#37c8d0"/>
      <path id="Path_48310" data-name="Path 48310" d="M.049,15.273a.824.824,0,0,1,.761-.807.818.818,0,0,1,.879.758.379.379,0,0,1,0,.073.82.82,0,0,1-1.638.05.586.586,0,0,1,0-.073" transform="translate(0.027 7.987)" fill="#00adbb"/>
      <path id="Path_48311" data-name="Path 48311" d="M.408,17.77a.821.821,0,0,1,1.607-.334.53.53,0,0,1,.016.071.821.821,0,0,1-1.607.334c-.006-.023-.011-.048-.016-.071" transform="translate(0.219 9.287)" fill="#00aebc"/>
      <path id="Path_48312" data-name="Path 48312" d="M1.2,20.166a.824.824,0,0,1,.438-1.018.821.821,0,0,1,1.087.41.525.525,0,0,1,.028.068.822.822,0,0,1-1.524.609.632.632,0,0,1-.028-.068" transform="translate(0.635 10.533)" fill="#00aebc"/>
      <path id="Path_48313" data-name="Path 48313" d="M2.387,22.389a.825.825,0,0,1,.255-1.079.807.807,0,0,1,.615-.129.819.819,0,0,1,.526.343l.039.062a.822.822,0,0,1-1.4.865c-.014-.02-.026-.042-.039-.062" transform="translate(1.261 11.689)" fill="#00aebc"/>
      <path id="Path_48314" data-name="Path 48314" d="M3.946,24.37a.821.821,0,0,1,1.225-1.093c.017.017.033.036.048.054a.822.822,0,0,1-1.225,1.093c-.017-.017-.033-.036-.048-.054" transform="translate(2.078 12.718)" fill="#00adbb"/>
      <path id="Path_48315" data-name="Path 48315" d="M5.827,26.052a.822.822,0,0,1,1.017-1.29c.019.016.039.029.056.047a.813.813,0,0,1,.13,1.1.822.822,0,0,1-1.146.188c-.02-.014-.039-.029-.057-.045" transform="translate(3.062 13.59)" fill="#00adbb"/>
      <path id="Path_48316" data-name="Path 48316" d="M7.97,27.382a.825.825,0,0,1-.32-1.062.824.824,0,0,1,1.1-.385c.022.011.043.023.064.036a.821.821,0,0,1-.778,1.445c-.022-.011-.043-.022-.064-.034" transform="translate(4.181 14.278)" fill="#00adbb"/>
      <path id="Path_48317" data-name="Path 48317" d="M10.311,28.318a.826.826,0,0,1-.5-.99.821.821,0,0,1,1.014-.568l.07.022a.822.822,0,0,1-.515,1.56l-.07-.023" transform="translate(5.403 14.761)" fill="#00adbb"/>
      <path id="Path_48318" data-name="Path 48318" d="M12.78,28.834a.824.824,0,0,1-.663-.889.8.8,0,0,1,.3-.553.814.814,0,0,1,.6-.183c.023,0,.048.006.071.011a.822.822,0,0,1-.234,1.625c-.025,0-.05-.006-.073-.011" transform="translate(6.69 15.024)" fill="#00adbb"/>
    </g>
  </g>
</svg>
